<svg id="a2o-logo" data-name="Layer 2" xmlns="http://www.w3.org/2000/svg" viewBox="0 0 437.43 406.58">
  <defs>
    <style>
      #a2o-logo .cls-1, #a2o-logo .cls-2 {
        fill: var(--logo-invert-color, #231f20);
      }

      #a2o-logo .cls-2 {
        fill-rule: evenodd;
      }
    </style>
  </defs>
  <g id="svg2">
    <g id="g8">
      <g id="g10">
        <path id="path12" class="cls-1" d="M227.91,83.37c42.54,0,77.16,34.62,77.16,77.16s-34.62,77.16-77.16,77.16-77.16-34.62-77.16-77.16,34.61-77.16,77.16-77.16h0ZM146.62,160.53c0,44.83,36.47,81.3,81.29,81.3s81.29-36.47,81.29-81.3-36.47-81.29-81.29-81.29-81.29,36.47-81.29,81.29"/>
        <path id="path14" class="cls-1" d="M315.74,160.53c0,48.42-39.4,87.82-87.83,87.82s-87.81-39.4-87.81-87.82,39.39-87.82,87.81-87.82,87.83,39.4,87.83,87.82ZM192.19,75.99c-10.96,4.64-20.82,11.35-29.15,19.67-8.32,8.32-15.03,18.19-19.67,29.14-4.68,11.04-7.24,23.1-7.24,35.72s2.55,24.68,7.24,35.71c4.65,10.96,11.35,20.82,19.67,29.15,8.32,8.32,18.18,15.03,29.15,19.67,11.04,4.68,23.09,7.23,35.71,7.23s24.68-2.55,35.72-7.23c10.96-4.65,20.83-11.35,29.14-19.67,8.33-8.32,15.03-18.19,19.67-29.15,4.68-11.03,7.24-23.09,7.24-35.71s-2.56-24.69-7.24-35.73c-4.65-10.95-11.35-20.82-19.67-29.14-8.33-8.32-18.19-15.02-29.14-19.66-11.04-4.68-23.1-7.24-35.72-7.23-12.62,0-24.68,2.55-35.71,7.23"/>
        <path id="path16" class="cls-1" d="M129.43,160.53c0-54.3,44.18-98.49,98.49-98.49,16.23,0,31.51,4.02,45.02,11-.75-.78-1.5-1.56-2.23-2.41-1.47-1.7-3.41-3.44-5.55-5.22-11.64-4.57-24.16-7.12-37.24-7.12-14.02,0-27.45,2.82-39.8,8.06-12.2,5.17-23.18,12.62-32.47,21.91-9.28,9.29-16.75,20.28-21.92,32.48-5.23,12.35-8.06,25.78-8.06,39.8s2.83,27.45,8.06,39.79c5.17,12.21,12.63,23.19,21.91,32.48,8.83,8.82,19.22,15.92,30.69,21.05,4.02-.06,7.94.11,11.72.5-39.74-12.68-68.61-49.93-68.61-93.82"/>
        <path id="path18" class="cls-1" d="M300.19,232.8c9.28-9.29,16.74-20.27,21.91-32.48,5.23-12.34,8.05-25.77,8.05-39.79s-2.82-27.46-8.05-39.8c-5.18-12.2-12.63-23.18-21.92-32.48-1.56-1.56-3.24-2.99-4.88-4.44-2.04.28-4.2.09-6.42-.48,22.81,18.05,37.52,45.91,37.52,77.19,0,54.3-44.18,98.48-98.49,98.48-4.99,0-9.86-.49-14.64-1.21,1.7.67,3.34,1.41,4.79,2.28,1.29.79,2.39,1.58,3.4,2.37,2.15.13,4.28.33,6.45.33,14.02,0,27.46-2.83,39.8-8.06,12.21-5.17,23.19-12.63,32.48-21.92"/>
        <path id="path20" class="cls-1" d="M307.59,240.21c10.26-10.26,18.46-22.36,24.16-35.81,5.79-13.65,8.88-28.46,8.88-43.87s-3.09-30.22-8.88-43.88c-5.7-13.44-13.9-25.55-24.16-35.8-.99-.99-2.08-1.87-3.11-2.83-.73.97-1.48,1.88-2.32,2.61,21.45,19.95,34.9,48.38,34.9,79.9,0,60.13-48.88,109.05-108.99,109.14.73,1.11,1.43,2.28,2.15,3.52,14.59-.29,28.61-3.33,41.57-8.82,13.45-5.7,25.55-13.91,35.8-24.16"/>
        <path id="path22" class="cls-1" d="M118.77,160.53c0-60.18,48.96-109.15,109.14-109.15,8.21,0,16.19.94,23.89,2.67-1.44-1.45-2.67-2.91-3.63-4.38-6.6-1.2-13.36-1.85-20.25-1.85-15.42,0-30.22,3.1-43.87,8.89-13.45,5.7-25.55,13.9-35.81,24.15-10.26,10.26-18.46,22.36-24.17,35.81-5.78,13.65-8.87,28.46-8.87,43.87s3.09,30.22,8.87,43.87c5.7,13.45,13.91,25.55,24.17,35.81,5.82,5.82,12.29,10.9,19.21,15.31,1.82-.29,3.65-.53,5.51-.76-32.37-18.95-54.18-54.09-54.18-94.24"/>
        <path id="path24" class="cls-1" d="M315,247.61c11.22-11.22,20.18-24.44,26.4-39.14,6.34-14.96,9.7-31.12,9.7-47.95s-3.36-33-9.7-47.95c-6.22-14.69-15.18-27.91-26.4-39.13-1.82-1.82-3.77-3.48-5.7-5.18-.39,1.04-.83,2.13-1.29,3.26,24.36,21.95,39.71,53.71,39.71,89.01,0,63.89-50.27,116.25-113.33,119.63.16.24.28.46.44.71.59.93,1.18,1.75,1.76,2.51,13.7-.96,26.91-4.13,39.27-9.37,14.7-6.22,27.92-15.18,39.14-26.4"/>
        <path id="path26" class="cls-1" d="M108.1,160.53c0-66.06,53.74-119.82,119.81-119.82,7.08,0,14.01.65,20.75,1.84.77-.97,1.65-2,2.5-2.99-7.57-1.45-15.34-2.22-23.26-2.22-16.82,0-32.99,3.36-47.95,9.7-14.7,6.22-27.92,15.18-39.14,26.4-11.22,11.22-20.18,24.44-26.41,39.14-6.34,14.95-9.69,31.13-9.69,47.95s3.36,33,9.69,47.95c6.23,14.7,15.19,27.91,26.41,39.14,3.95,3.95,8.22,7.5,12.64,10.87,1.34-.36,2.71-.72,4.12-1.05-29.96-21.8-49.48-57.11-49.48-96.91"/>
        <path id="path28" class="cls-1" d="M256.56,33.25c.76-.94,1.47-1.86,2.14-2.79-9.96-2.36-20.25-3.61-30.79-3.61-18.22,0-35.77,3.64-52.03,10.52-.33.14-.63.32-.97.46-.08.17-.17.34-.25.51-.68,1.4-1.35,2.7-2.03,4.01,16.79-7.89,35.52-12.32,55.27-12.32,9.85,0,19.42,1.13,28.65,3.2"/>
        <path id="path30" class="cls-1" d="M322.41,255.02c12.2-12.19,21.9-26.53,28.65-42.47,6.89-16.27,10.53-33.8,10.53-52.03s-3.63-35.77-10.53-52.04c-6.75-15.93-16.45-30.27-28.65-42.46-3.14-3.14-6.41-6.09-9.82-8.89-.24,1.19-.51,2.36-.82,3.53,28.48,23.95,46.62,59.82,46.62,99.86,0,66.53-50.06,121.55-114.48,129.46.51.32,1,.63,1.5.94.93.57,1.82,1.14,2.71,1.75,11.01-1.67,21.66-4.7,31.82-9,15.94-6.75,30.28-16.46,42.47-28.65"/>
        <path id="path32" class="cls-1" d="M97.43,160.53c0-46.07,24.02-86.61,60.18-109.83-.98-.53-1.99-1.17-3.03-1.83-7.59,4.99-14.7,10.71-21.16,17.17-12.19,12.2-21.9,26.53-28.65,42.47-6.89,16.26-10.52,33.81-10.52,52.03s3.63,35.76,10.52,52.03c6.75,15.93,16.45,30.28,28.65,42.47,2.65,2.65,5.45,5.13,8.3,7.55.6-.29,1.22-.57,1.92-.85.44-.18.92-.34,1.38-.51-29.04-23.95-47.58-60.19-47.58-100.68"/>
        <path id="path34" class="cls-1" d="M262.29,23.64c.28-1.06.31-2.07.16-3.05-11.16-2.75-22.71-4.19-34.54-4.19-14.69,0-28.99,2.19-42.61,6.41-1.65,1.38-3.09,2.95-4.36,4.65,14.71-5.2,30.51-8.07,46.97-8.07,11.86,0,23.37,1.49,34.38,4.25"/>
        <path id="path36" class="cls-1" d="M86.77,160.53c0-47.98,24.09-90.42,60.78-115.93-1.05-.54-2.14-1.02-3.26-1.42-6.48,4.64-12.6,9.77-18.28,15.45-13.16,13.16-23.62,28.62-30.89,45.8-7.44,17.57-11.34,36.48-11.34,56.1s3.9,38.53,11.34,56.1c7.27,17.18,17.74,32.64,30.89,45.8,2.49,2.48,5.08,4.85,7.73,7.13.58-.86,1.15-1.68,1.81-2.45-29.85-25.89-48.78-64.06-48.78-106.59"/>
        <path id="path38" class="cls-1" d="M329.81,262.43c13.16-13.16,23.61-28.62,30.89-45.8,7.44-17.57,11.34-36.47,11.34-56.1s-3.91-38.54-11.34-56.11c-7.28-17.19-17.73-32.63-30.9-45.79-4.92-4.92-10.16-9.46-15.69-13.6-.09,1.26-.19,2.48-.3,3.63,33.55,25.83,55.23,66.36,55.23,111.87,0,69.14-49.98,126.78-115.71,138.8.04.19.07.37.11.57.13.75.29,1.56.57,2.37,10.32-1.9,20.36-4.87,29.99-8.94,17.19-7.27,32.64-17.73,45.8-30.89"/>
        <path id="path40" class="cls-1" d="M221.25,8.89c-1.46-.89-2.93-1.76-4.39-2.54-4.74.33-9.44.87-14.09,1.63-.11.97.11,1.89.54,2.76,5.88-.96,11.86-1.59,17.94-1.85"/>
        <path id="path42" class="cls-1" d="M76.11,160.53c0-28.3,7.81-54.81,21.35-77.51l-1.07.89c-2.78,2.52-5.3,6.99-8.21,12.15-1.05,1.86-2.13,3.77-3.25,5.65-7.62,18.49-11.63,38.3-11.63,58.82s4.18,41.3,12.16,60.18c7.8,18.44,19.01,35,33.14,49.13,2.86,2.86,5.85,5.57,8.9,8.19.69-.74,1.32-1.46,1.87-2.16-32.57-27.87-53.27-69.22-53.27-115.34"/>
        <path id="path44" class="cls-1" d="M337.22,269.84c14.13-14.13,25.34-30.69,33.14-49.13,7.99-18.88,12.16-39.15,12.16-60.18,0-17.61-2.96-34.69-8.61-50.87-4.16-2.62-4.69-4.1-5.95-9.15-.56-2.24-.39-3.97-.11-5.71-7.62-16.21-17.94-30.89-30.63-43.58-6.94-6.94-14.47-13.16-22.51-18.63-.04,1.19-.09,2.32-.13,3.42,39.33,27.46,65.13,73.02,65.13,124.52,0,68.16-45.15,125.96-107.12,145.09.56.67,1.05,1.52,1.48,2.5,4.75-1.48,9.42-3.19,14.01-5.13,18.43-7.81,35.01-19.01,49.13-33.14"/>
        <path id="path46" class="cls-1" d="M344.63,277.24c15.09-15.1,27.05-32.78,35.38-52.46,8.54-20.18,12.98-41.83,12.98-64.26,0-15.15-2.07-29.92-6.02-44.15-.87-.43-1.77-.85-2.68-1.28-.15-.07-.33-.16-.49-.23,4.25,14.49,6.57,29.81,6.57,45.66,0,72.65-47.93,134.31-113.82,155.03.27.84.56,1.67.88,2.47,4.99-1.57,9.91-3.36,14.74-5.4,19.67-8.34,37.36-20.29,52.46-35.39"/>
        <path id="path48" class="cls-1" d="M361.7,67.35c.11-1.2.08-2.35,0-3.48-4.86-6.71-10.22-13.07-16.07-19.02-.35.27-.69.54-1,.79l-1.12.86c6.66,6.75,12.72,14.08,18.13,21.91.02-.36.03-.67.07-1.05"/>
        <path id="path50" class="cls-1" d="M65.44,160.53c0-15.55,2.24-30.58,6.34-44.83-.25.09-.48.25-.73.33-.8.25-1.55.51-2.32.76-3.87,14.1-5.9,28.74-5.9,43.74,0,22.42,4.44,44.07,12.98,64.26,8.33,19.68,20.28,37.36,35.38,52.46,2.36,2.36,4.81,4.62,7.3,6.83.94-.32,1.86-.68,2.76-1.13-34.16-29.81-55.82-73.61-55.82-122.41"/>
        <path id="path52" class="cls-1" d="M342.58,44.68c-.18-.6-.38-1.82-.61-3.41-8.07-7.72-16.84-14.58-26.22-20.48-.15,1.04-.28,2.03-.39,2.92,10.1,6.48,19.45,14.01,27.87,22.49-.18-.31-.39-.74-.65-1.52"/>
        <path id="path54" class="cls-1" d="M352.03,284.65c16.07-16.07,28.78-34.87,37.63-55.79,9.09-21.49,13.81-44.51,13.81-68.33,0-8.16-.59-16.22-1.69-24.15-.22-.73-.45-1.45-.68-2.19-.71-2.38-1.46-4.84-2.4-7.35-.41-1.11-.97-2.08-1.61-2.98,2.56,11.82,3.95,24.09,3.95,36.67,0,76.43-49.81,141.41-118.65,164.3.76.64,1.57,1.22,2.42,1.77,3.85-1.32,7.67-2.72,11.43-4.32,20.92-8.85,39.72-21.57,55.79-37.62"/>
        <path id="path56" class="cls-1" d="M59.62,119.96c-.95.35-1.85.71-2.75,1.06-2.96,12.83-4.52,26.03-4.52,39.51,0,23.82,4.71,46.84,13.81,68.33,8.86,20.92,21.57,39.73,37.63,55.79.45.45.92.86,1.38,1.31.1,0,.19-.01.29-.02,1.03-.05,2.07-.11,3.11-.18-33.1-31.55-53.78-76.01-53.78-125.23,0-13.97,1.71-27.55,4.85-40.57"/>
        <path id="path58" class="cls-1" d="M339.81,25.27c-6.9-5.72-14.21-10.88-21.89-15.48-.22.83-.42,1.67-.62,2.51,8.15,4.93,15.84,10.55,23.05,16.72-.18-1.27-.36-2.52-.54-3.76"/>
        <path id="path60" class="cls-1" d="M336.9,9.81c-4.84-3.51-9.84-6.78-15-9.81-.41.62-.79,1.28-1.15,1.99,5.85,3.45,11.53,7.16,16.95,11.22-.25-1.19-.52-2.31-.8-3.4"/>
        <path id="path62" class="cls-1" d="M399.31,232.93c9.65-22.79,14.63-47.18,14.63-72.41,0-1.9-.08-3.78-.14-5.67-.23-.19-.45-.4-.68-.59-.53-.44-1.07-.94-1.6-1.4.1,2.54.19,5.09.19,7.66,0,77.27-47.95,143.51-115.63,170.64,1.32.33,2.64.62,3.99.86.09-.03.17-.06.25-.1,22.17-9.38,42.09-22.84,59.12-39.87,17.03-17.03,30.49-36.96,39.87-59.13"/>
        <path id="path64" class="cls-1" d="M47.59,125.03c-.86.41-1.69.83-2.51,1.25-2.09,11.19-3.19,22.63-3.19,34.25,0,25.23,4.98,49.62,14.63,72.41,8.64,20.41,20.77,38.88,35.92,54.98.8-.29,1.61-.56,2.45-.76-31.41-32.99-50.77-77.58-50.77-126.62,0-12.14,1.21-24,3.47-35.49"/>
        <path id="path66" class="cls-1" d="M35.97,129.41c-.72.17-1.45.35-2.18.54-1.57,10.03-2.39,20.23-2.39,30.58,0,26.63,5.25,52.38,15.46,76.49,8.78,20.77,20.97,39.65,36.17,56.22.61-.4,1.21-.8,1.8-1.18-31.87-34.65-51.38-80.85-51.38-131.53,0-10.59.88-20.98,2.52-31.12"/>
        <path id="path68" class="cls-1" d="M408.97,237.01c8.75-20.7,13.84-42.62,15.11-65.26-.73-1.09-1.38-2.2-1.91-3.35-2.9,72.39-45.54,134.68-106.66,165.66.05,0,.1.01.15.02,1.3.15,2.44.3,3.52.46,17.54-9.21,33.55-20.95,47.66-35.07,18.01-18,32.21-39.04,42.12-62.46"/>
        <path id="path70" class="cls-1" d="M330.12,338.26c.58.36,1.18.75,1.81,1.18,15.4-8.96,29.6-19.84,42.33-32.57,18.97-18.97,33.93-41.13,44.36-65.78,7.54-17.83,12.46-36.5,14.75-55.73-.43-1.27-.9-2.37-1.45-3.34-6.99,66.82-46.21,124.16-101.79,156.24"/>
        <path id="path72" class="cls-1" d="M24.43,134.99c-.18.2-.37.36-.54.57-.6.72-1.14,1.37-1.65,1.97-.83,7.59-1.29,15.25-1.29,22.99,0,28.03,5.52,55.15,16.26,80.57,9.02,21.31,21.44,40.74,36.89,57.88.56-.34,1.12-.68,1.68-1.02-32.91-36.4-52.98-84.61-52.98-137.42,0-8.65.6-17.16,1.64-25.54"/>
        <path id="path74" class="cls-1" d="M340.38,344.61c.68.26,1.39.5,2.15.7,14.13-8.78,27.23-19.14,39.14-31.04,19.94-19.93,35.64-43.21,46.61-69.11,3.59-8.5,6.57-17.2,9.04-26.03.1-2.27.14-4.59.1-6.98-13.76,55.82-49.27,103.17-97.03,132.45"/>
        <path id="path76" class="cls-1" d="M37.84,266.15c7.49,13.48,16.41,26.09,26.64,37.73.56-.22,1.13-.48,1.69-.73-12.37-14.01-22.95-29.63-31.38-46.51,1.16,3.41,2.21,6.68,3.06,9.51"/>
        <path id="path78" class="cls-1" d="M12.55,147.44c-.72.56-1.28.87-1.74,1.01-.22,4.01-.35,8.03-.35,12.07,0,22.61,3.45,44.65,10.16,65.76,1.07.97,2.03,1.95,2.8,3-7.29-21.62-11.3-44.72-11.3-68.76,0-4.4.17-8.76.43-13.09"/>
        <path id="path80" class="cls-1" d="M1.55,157.07c-.54,1.18-1.06,2.49-1.55,3.86.03,18.26,2.23,36.17,6.46,53.57.59.79,1.3,1.54,2.08,2.28-4.62-17.99-7.07-36.84-7.07-56.25,0-1.16.07-2.3.09-3.45"/>
        <path id="path82" class="cls-1" d="M328.79,363.19c-2.04,1.02-4.1,2.01-6.18,2.97-.32.61-.51,1.26-.61,1.96,3.05-1.39,6.07-2.83,9.05-4.35-.74-.29-1.5-.48-2.26-.58"/>
        <path id="path84" class="cls-1" d="M39.24,288.42c4.09,6.03,8.48,11.86,13.14,17.49.73.09,1.46.14,2.2.14-5.44-6.48-10.53-13.26-15.24-20.32-.06.9-.09,1.8-.1,2.69"/>
        <path id="path86" class="cls-1" d="M368.02,340.24c5.42-4.23,10.65-8.71,15.7-13.46,1.38-1.81,2.65-3.75,3.82-5.8-8.01,7.97-16.62,15.32-25.74,22.03,2.16-.79,4.23-1.72,6.22-2.78"/>
        <path id="path88" class="cls-1" d="M340.72,369.04c-5.6,3.05-11.36,5.82-17.22,8.41.08.28.16.58.23.87.04.16.06.3.09.46,6.38-2.81,12.62-5.85,18.69-9.18-.59-.13-1.18-.31-1.79-.57"/>
        <path id="path90" class="cls-1" d="M361.6,368.99c-11.51,7.41-23.64,13.93-36.34,19.37.07.39.18.77.27,1.15,12.92-5.52,25.24-12.11,36.95-19.65-.24-.3-.55-.58-.88-.87"/>
        <path id="path92" class="cls-1" d="M329.59,399.16c11.56-4.93,22.66-10.65,33.29-17.14.16-.51.35-1.01.49-1.51-10.93,6.75-22.37,12.73-34.29,17.82.17.29.34.55.51.83"/>
        <path id="path94" class="cls-1" d="M338.6,406.58c5.09-2.29,10.11-4.71,15.03-7.3.4-.49.79-.97,1.2-1.52-5.64,3.03-11.42,5.82-17.3,8.45.36.12.71.29,1.07.37"/>
        <path id="path96" class="cls-2" d="M203.71,172.55c1.31,12.2,10.56,20.25,20.83,21.94,13.47,2.21,23.83-6.15,27.49-15.06,3.06-7.49,1.77-21.16,1.77-31.48,0-9.19.9-17.01,0-26.15-1.32-13.46-13.47-23.81-28.15-22.16-9.75,1.09-17.17,7.9-20.16,15.07-3.47,8.3-1.78,19.43-1.78,32.36,0,8.36-.85,17.55,0,25.49"/>
        <path id="path98" class="cls-2" d="M260,178.75c-2.57-.23-3.44,3.69-5.31,6.87-4.43,7.51-11.61,13.31-22.61,14.18-10.54.84-18.62-2.69-23.72-7.09-1.76-1.52-3.39-3.28-5.32-6.42-1.47-2.42-2.47-7.04-4.2-7.54-6.13-1.74-2.34,6.71-1.33,8.64,5.04,9.63,14.73,16.07,28.14,17.96-.13,3.3.2,7.05-.07,10.22h-4.74c-2.1,0-3.82,1.71-3.82,3.82s1.71,3.83,3.82,3.83h15.92c2.11,0,3.82-1.71,3.82-3.83s-1.71-3.82-3.82-3.82h-4.9v-10.45c13.37-1.19,23.21-8.49,28.14-17.96,1.19-2.26,4.25-8.03,0-8.42"/>
      </g>
    </g>
  </g>
</svg>
