<svg xmlns="http://www.w3.org/2000/svg" viewBox="668 190 750 497">
  <path id="hero-vector" d="m1017.53,417.23h0c13,0,23.54,10.55,23.54,23.57v39.4c0,13.02-10.54,23.57-23.54,23.57h0c-13,0-23.54-10.55-23.54-23.57v-39.4c0-13.02,10.54-23.57,23.54-23.57Zm51.8.27v86.01c0,13.02,10.54,23.57,23.54,23.57h0c13,0,23.54-10.55,23.54-23.57v-86.01c0-13.02-10.54-23.57-23.54-23.57h0c-13,0-23.54,10.55-23.54,23.57Zm75.34-104.96v296c0,13.02,10.54,23.57,23.54,23.57h0c13,0,23.54-10.55,23.54-23.57v-296c0-13.02-10.54-23.57-23.54-23.57h0c-13,0-23.54,10.55-23.54,23.57Zm75.34-54.49v404.9c0,13.02,10.54,23.57,23.54,23.57h0c13,0,23.54-10.55,23.54-23.57v-404.9c0-13.02-10.54-23.57-23.54-23.57h0c-13,0-23.54,10.55-23.54,23.57Zm75.34,129.28v146.4c0,13.02,10.54,23.57,23.54,23.57h0c13,0,23.54-10.55,23.54-23.57v-146.4c0-13.02-10.54-23.57-23.54-23.57h0c-13,0-23.54,10.55-23.54,23.57Zm75.34,33.7v78.94c0,13.02,10.54,23.57,23.54,23.57h0c13,0,23.54-10.55,23.54-23.57v-78.94c0-13.02-10.54-23.57-23.54-23.57h0c-13,0-23.54,10.55-23.54,23.57Zm-451.64-71.4v221.74c0,13.02,10.54,23.57,23.54,23.57h0c13,0,23.54-10.55,23.54-23.57v-221.74c0-13.02-10.54-23.57-23.54-23.57h0c-13,0-23.54,10.55-23.54,23.57Zm-150.89,51.9v117.94c0,13.02,10.54,23.57,23.54,23.57h0c13,0,23.54-10.55,23.54-23.57v-117.94c0-13.02-10.54-23.57-23.54-23.57h0c-13,0-23.54,10.55-23.54,23.57Zm75.34-128.74v375.49c0,13.02,10.54,23.57,23.54,23.57h0c13,0,23.54-10.55,23.54-23.57v-375.49c0-13.02-10.54-23.57-23.54-23.57h0c-13,0-23.54,10.55-23.54,23.57Zm-150.28,175.75v23.98c0,13.02,10.54,23.57,23.54,23.57h0c13,0,23.54-10.55,23.54-23.57v-23.98c0-13.02-10.54-23.57-23.54-23.57h0c-13,0-23.54,10.55-23.54,23.57ZM1160.52,206.44C1143.18,199.98,1119.45,196.31,1104.84,205.63c-13.37,8.53-18.48,23.44-20.37,32.3-9.89-4.48-27.79-10.31-43.96-3.25C1026.36,240.69,1017.14,254.81,1012.93,276.96l-.93,5.68,2.7-4.87c9.46-16.35,18.45-27.22,30.41-32.45,17.73-7.72,40.59,6.31,40.83,6.43l8.35,5.32.51-9.83c0-.24,1.41-22.29,16.35-31.79,10.34-6.55,24.04-8.56,49.01-7.12l6.91.72-6.55-2.61Z"/>
</svg>
