<?xml version="1.0" encoding="UTF-8"?>
<svg id="Layer_2" data-name="Layer 2" xmlns="http://www.w3.org/2000/svg" viewBox="0 0 538.64 201.53" style="display:block;height:100%;width:100%;">
  <defs>
    <style>
      .cls-1 {
        fill: var(--logo-invert-color,#212121);
      }

      .cls-2 {
        fill: #f26649;
      }
    </style>
  </defs>
  <g id="Layer_1-2" data-name="Layer 1">
    <g>
      <path class="cls-2" d="M358.6,189c-3.58.66-2.52-2.73-3.12-5.04-4.2,3.95-9.68,6.71-15.6,5.16-4.79-1.26-7.38-6.67-5.48-11.24,2.6-6.26,14.99-7.49,20.85-7.35v-6.35c0-.39-.69-2.45-.92-2.92-2.52-5.35-9.5-4.6-13.8-1.95-.94.58-2.77,2.57-3.77,2.26-.48-.15-1.11-1.05-1.15-1.51-.04-.49,2.55-2.44,3.1-2.81,6.46-4.27,16.71-4.13,19.25,4.46.15.5.65,2.58.65,2.95v24.34ZM355.24,172.7c-5.82.12-21.38,1.17-17.71,10.62,2.74,7.04,14.44,2.99,17.71-1.86v-8.75Z"/>
      <path class="cls-2" d="M371.08,155.19v22.42c0,.24.23,1.73.3,2.1,1.98,10.8,15.23,7.98,19.86.78v-25.3h3.36v33.45c-.55.6-1.66.41-2.4.24l-.36-.36c.04-.43-.36-1.31-.36-1.56v-3.72c-3.88,4.06-7.89,6.71-13.8,6.23-7.6-.62-9.63-6.66-9.97-13.29s.28-14.08,0-20.99h3.36Z"/>
      <path class="cls-2" d="M261.16,155.19c.83.08,2.53-.37,2.83.65l.29,7.02,1.58-2.86c3.38-5.29,9.05-6.91,14.76-4.19l-.65,2.75c-.48.35-3.28-.68-4.28-.75-6.29-.43-9.48,3.75-11.17,9.24l-.03,21.55c-.25.75-2.62.25-3.33.39v-33.81Z"/>
      <rect class="cls-2" x="163" y="139.61" width="3.12" height="49.4"/>
      <path class="cls-2" d="M211.91,183.05c4-.46,4.97,5.81.88,6.41-4.58.67-4.87-5.96-.88-6.41Z"/>
      <path class="cls-2" d="M323.27,183.05c3.82-.44,4.84,5.83.88,6.42-4.48.66-5.16-5.92-.88-6.42Z"/>
      <g>
        <path class="cls-2" d="M93.65,24.27l39.95-15.36c12.84-3.74,19.69,13.23,8.3,19.56l-47.28,17.98-9.26,17.61v1.21c2.75,6.86,4.11,15.08,6.98,21.81,3.6,8.43,9.52,17.28,13.68,25.66.76,1.54,1.99,3.55,2.21,5.22,1.52,11.24-11.18,16.91-18.65,8.8l-12.65-23.39-30.91,6.98c-13.01.84-16.46-17.07-3.64-20.9l26.07-5.97-2.91-9.8-17.56-1.18c-5.88,4.5-11.18,10.15-16.97,14.7-11.92,9.36-23.94-5.45-15.36-14.86,2.2-2.41,5.51-4.31,7.67-6.84-5.23-1.94-11.07-3.17-16.2-5.27-12.68-5.19-7.28-23.76,7.27-19.97,10.68,2.78,21.47,7.55,32.15,10.56l20.7,1.39,7.94-15.36c-.02-.69-.27-1.33-.44-1.98-1.78-6.78-5.29-14.2-6.67-20.91-2.71-13.11,15.52-18.85,20.54-5.65,1.94,5.11,3.14,10.79,5.04,15.95Z"/>
        <path class="cls-1" d="M127.24,130.97l30.27-78.14,16.42-.05,30.59,78.19h-14.04c-1.11,0-3.4-2.11-3.69-3.27l-5.34-15.16-31.2.11-5.28,15.05c-.31,1.07-2.7,3.27-3.69,3.27h-14.04ZM177.4,101.24l-11.64-33.33-11.4,33.33h23.04Z"/>
        <g>
          <path class="cls-1" d="M221.56,75.35v36.57c0,2.79,1.71,6.43,4.31,7.68,5.17,2.5,11.32-.5,15.13-4.09v-39.8l.36-.36h14.4l.36.36v55.27h-10.44c-.08,0-1.15-.49-1.31-.61-1.5-1.08-1.6-3.99-2.17-5.63-5.75,5.43-12.4,8.22-20.45,6.88-9.45-1.57-14.2-9.27-15.07-18.28v-38s14.88,0,14.88,0Z"/>
          <g>
            <path class="cls-1" d="M538.6,130.97h-8.76c-.09,0-1.24-.42-1.41-.51-1.86-1.05-2.05-3.62-2.77-5.39-.09-.23.13-.43-.39-.34-.3.05-3.61,2.84-4.36,3.32-9.89,6.32-28.36,5.69-29.81-8.74-1.74-17.41,20.14-19.97,32.85-20.47v-4.2c0-7.53-6.55-9.7-12.92-8.11-4.83,1.21-10.05,7.15-14.32,2-.58-.69-2.71-4.29-2.9-5.04-.17-.69,1.65-1.92,2.23-2.36,14.37-10.99,40.02-9.87,42.32,11.83.54,12.64.1,25.34.24,38ZM523.96,107.96c-4.87.07-14.88.65-17.86,5.05-1.84,2.71-.84,6.95,2.32,8.2,5.37,2.15,11.85-.76,15.55-4.74v-8.51Z"/>
            <path class="cls-1" d="M435.16,130.97h-8.76c-.1,0-1.12-.49-1.31-.61-1.77-1.15-1.9-3.51-2.63-5.29-.09-.23.13-.43-.39-.34-.35.06-4.67,3.53-5.72,4.12-10,5.66-26.4,4.22-28.45-9.3-2.61-17.16,20.53-20.5,32.85-20.71v-3.48c0-1.72-.74-4.75-1.72-6.19-2.36-3.48-7.52-3.57-11.25-2.68-5.12,1.22-10.37,7.77-14.83,1.41-.29-.41-2.34-4.07-2.41-4.34-.14-.55.55-1.03.92-1.38,9.19-8.63,29.46-11.49,38.53-1.32,2.24,2.52,5.16,8.51,5.16,11.87v38.25ZM420.76,107.96c-2.51-.05-5.04.13-7.52.52-4.52.7-11.43,2.23-11.21,8.01.26,6.75,9.14,6.05,13.54,3.92,2-.97,3.51-2.53,5.19-3.93v-8.51Z"/>
          </g>
          <path class="cls-1" d="M279.49,87.18c-2.35,2.35-1.62,5.57,1.03,7.31,8.12,5.31,23.42,3.93,24.09,17.89.98,20.48-25.16,23.44-39.11,15.1-1-.6-3.48-1.88-2.96-3.15.43-1.05,3.6-5.86,4.45-6.36,3.5-2.04,7.06,1.74,10.43,2.87,3.91,1.31,11.05,1.55,12.82-3.13,2.53-6.69-8.16-8.25-12.41-9.75-7.58-2.69-13.63-6.27-14.03-15.23-.87-19.41,27.46-22.93,38.99-12.34.65.6,1.31.93.96,1.9-.21.58-2.72,4.31-3.24,4.92-2.75,3.25-5.83.27-8.99-.84s-9.35-1.87-12.04.81Z"/>
          <path class="cls-1" d="M330.04,58.8v17.02h14.4v10.31h-14.4v29.37c0,.92.76,2.9,1.46,3.57,1.07,1.03,3.2,1.1,4.6.81,2.1-.43,3.08-2.93,5.27-.12,1.61,2.07,2.8,4.95,4.48,7.04l-1.38,1.2c-8.87,5.81-24.84,6.2-28.47-5.9-.24-.81-.84-3.01-.84-3.72v-32.25h-6.12c-.08,0-1.04-.59-1.18-.74-1.53-1.57-.61-6.04-.85-8.12l9-1.68,3.11-14.63c.22-1.03,1.64-2.16,2.63-2.16h8.28Z"/>
          <path class="cls-1" d="M367,130.97h-15.12v-55.27l.36-.36h9.12c.47,0,2.1.52,2.51.85,1.72,1.4,1.68,5.93,1.93,8.02.57.13.39-.1.53-.31,4.17-6.11,10.06-12.4,18.42-8.67,1.86.83,1.52,1.4,1.44,3.35-.09,2.23-.37,5.98-.74,8.13-.69,3.98-5.41,1.76-8.25,1.81-3.02.05-5.7,1.42-7.57,3.73-.44.54-2.65,4.14-2.65,4.55v34.17Z"/>
          <g>
            <rect class="cls-1" x="444.04" y="50.65" width="14.88" height="80.33"/>
            <g>
              <rect class="cls-1" x="469.24" y="75.58" width="14.88" height="55.39"/>
              <path class="cls-1" d="M475.19,50.71c11.87-1.62,15,15.36,3.48,17.86-12.43,2.69-15.55-16.21-3.48-17.86Z"/>
            </g>
          </g>
        </g>
        <g>
          <g>
            <path class="cls-1" d="M327.83,13.31c11.87-.07,17.88,10.13,15.1,21.09-3.87,15.27-27.38,14.64-30.3-1.24-1.95-10.6,3.93-19.79,15.2-19.85ZM326.38,19.77c-7.27,1.14-7.17,16.62-1.2,18.83,5.24,1.94,9.09-1.36,9.64-6.57.63-6.06-.59-13.49-8.43-12.26Z"/>
            <path class="cls-1" d="M349.96,10c.88-7.82,9.12-11.04,16.05-8.96l-.33,4.76c-.71,1.6-4.83.2-6.56,2.32-.22.27-1,1.91-1,2.12v3.72h7.32l.36.36v5.28l-.36.36h-7.08v24.94h-8.4v-24.94c-1-.21-4.56-.69-4.56-2.04v-3.96h4.56c.1-1.27-.14-2.71,0-3.96Z"/>
          </g>
          <g>
            <path class="cls-1" d="M504.52,44.89h-8.4v-20.98c0-.11-.56-1.75-.67-1.97-1.25-2.4-4.32-2.47-6.6-1.7-1.39.47-2.29,1.47-3.53,2.1v22.54h-8.4V13.72h5.16c1.67,0,2.46,2.19,2.52,3.6,5.9-5.82,16.49-5.64,19.2,3.23.21.7.72,2.5.72,3.12v21.22Z"/>
            <polygon class="cls-1" points="392.44 1.25 392.44 37.46 409.24 37.46 409.24 44.89 383.32 44.89 383.32 1.25 392.44 1.25"/>
            <path class="cls-1" d="M432.88,13.72c1.34.19,1.86.78,2.4,1.92,1.96,4.21,4.06,11.5,5.47,16.12.45,1.49.74,3.04,1.26,4.5.27-1.42.64-2.83,1.08-4.2,1.49-4.74,3.64-11.8,5.65-16.18.42-.92,1.26-2.16,2.4-2.16h6.6l-12.35,31.19-7.45-.26-11.88-30.93c2.13.21,4.78-.29,6.84,0Z"/>
            <rect class="cls-1" x="413.8" y="13.96" width="8.4" height="30.93"/>
            <rect class="cls-1" x="461.56" y="13.96" width="8.16" height="30.93"/>
            <path class="cls-1" d="M464.38.11c7.42-1.28,8.72,8.85,2.29,9.96-7.22,1.24-8.12-8.95-2.29-9.96Z"/>
            <path class="cls-1" d="M416.86.11c7.32-1.24,8.41,8.92,2.29,9.96-7.32,1.24-8.41-8.92-2.29-9.96Z"/>
            <path class="cls-1" d="M538.6,14.92v3.72c0,.96-3.25,1.55-4.08,1.56,2.06,6.81-3,12.56-9.72,13.18-1.68.16-6.39-.8-6.59,1.34-.23,2.39,5.16,1.9,6.6,2.03,5.11.43,12.88.46,13.33,7.3.78,11.94-19.3,14.61-26.63,8.62-4.27-3.49-3.31-9.14,1.9-10.89-3.97-2.75-2.65-8.04,1.44-9.83l-.15-.5c-2.34-1.24-4.37-3.89-4.65-6.58-.98-9.59,8.9-13.07,16.8-11.03.59.15,2.61,1.08,2.76,1.08h9ZM521.5,19.06c-5.38.71-4.87,8.16-.73,8.99,2.59.53,5.57.01,6.48-2.77,1.36-4.19-1.68-6.76-5.75-6.22ZM518.62,43.01c-2.71,1.3-3.8,4.72-.49,6.15,2.7,1.17,11.07,1.29,12.15-2.15.83-2.63-2.33-3.29-4.28-3.55-2.39-.33-4.98-.07-7.38-.45Z"/>
          </g>
          <g>
            <path class="cls-1" d="M160.12,44.89L176.94,1.63c.17-.37.46-.35.81-.39,2.6-.3,5.75.26,8.42,0l17.15,43.66h-7.8c-2.65,0-3.95-8.55-5.31-10.28h-17.09c-.94,1.67-2.84,10.28-4.96,10.28h-8.04ZM175.48,28.35h12.72l-6.36-18.22-6.36,18.22Z"/>
            <path class="cls-1" d="M266.68,44.89h-5.16c-.98,0-1.95-2.5-2.04-3.36-.3-.22-2.59,1.7-3.14,2.02-5.21,3.08-14.24,2.79-15.95-4.17-2.53-10.29,10.89-12.27,18.13-12.61.42-5-1.81-7.94-7.02-6.76-2.92.67-5.92,4.37-8.44.88-.24-.33-1.37-2.44-1.31-2.69,5.81-6.02,19.39-7.65,23.61,1.03.36.73,1.32,3.52,1.32,4.19v21.46ZM258.52,31.94c-3.41.19-11.9.5-10.21,6.01,1.04,3.41,8.82,1.43,10.21-1.33v-4.68Z"/>
            <path class="cls-1" d="M280.45,23.95c1.42,1.48,6.05,2.37,8.14,3.26,2.92,1.23,5.58,3.1,5.93,6.54,1.09,10.6-10.56,13.47-18.78,10.61-.82-.28-4.29-1.96-4.63-2.58-.25-.45,1.08-2.6,1.47-3.1,2.34-3.01,3.77-.72,6.18.27,2.2.91,6.51,1.28,7.7-1.27,1.99-4.25-6.38-5.26-9.06-6.48-4.27-1.94-6.41-5.59-5.32-10.29,2.12-9.16,16.46-9.5,22.18-3.68-.99,1.54-1.75,4.46-3.99,4.01-2.79-.56-3.64-2.19-7.38-1.76-2.22.25-4.21,2.62-2.44,4.47Z"/>
            <path class="cls-1" d="M214.6,4.61v9.35h8.16v5.99h-8.16v16.19c0,.74.61,2.16,1.43,2.41,1.89.59,3.55-1.11,4.57-.49.42.25,2.9,4.36,2.6,4.87-4.54,3.19-13.18,4.02-15.97-1.83-.4-.83-1.03-2.93-1.03-3.77v-17.38c-1.67-.17-4.06.75-4.32-1.55-.08-.68-.19-3.48.4-3.68.87-.29,4.1-.32,4.52-1,.75-1.8.98-7.27,2.04-8.51.11-.13.76-.59.85-.59h4.92Z"/>
            <rect class="cls-1" x="227.08" y=".05" width="8.4" height="44.84"/>
          </g>
        </g>
      </g>
      <path class="cls-2" d="M315.4,156.63c0,.7.21,1.86-.65,2.11l-5.35.29c5.4,9.15-1.11,18.01-11.4,17.26-2.64-.19-3.92-1.82-6.01.72-1.67,2.04-1.41,4.34,1.15,5.33,5.14,1.97,20.48-.75,21.51,6.81,2.08,15.34-27.96,15.94-29.48,4.51-.62-4.68,2.39-7.09,6.22-8.85-5.37-2.03-3.72-8.22.72-10.19l-2.4-2.03c-7.73-10.61,2.48-21.04,14.22-17.32.71.22,2.56,1.37,2.71,1.37h8.76ZM297.11,157.17c-9.33,1.26-9.48,15.87.89,16.73,4.98.41,9.77-1.9,10.22-7.31.58-7-4.59-10.3-11.11-9.42ZM293.95,185.48c-.35.04-2.12,1-2.53,1.27-3.81,2.47-4.71,6.74-.98,9.81,4.93,4.07,19,3.37,21.01-3.71.37-1.29.43-2.61-.26-3.82-1.9-3.34-11.15-2.94-14.62-3.14-.74-.04-1.95-.47-2.61-.4Z"/>
      <path class="cls-2" d="M226.45,158.63c3.54-3.54,9.07-4.64,13.89-3.86,17.78,2.87,17.04,36.23-4.5,34.7-14.82-1.05-18.29-21.96-9.4-30.84ZM234.95,157.42c-12.37,1.47-13.09,25.18-1.81,28.77,7.45,2.37,14.21-1.48,15.72-9.13,2.04-10.35-1.45-21.13-13.9-19.64Z"/>
      <path class="cls-2" d="M200.92,189c-3.58.66-2.52-2.73-3.12-5.04-3.94,3.61-8.23,6.02-13.79,5.51-3.83-.35-7.2-2.94-7.74-6.89-1.47-10.78,13.74-12.05,21.3-12.05v-6.35c0-.39-.69-2.45-.92-2.92-2.51-5.32-9.52-4.63-13.8-1.95-1.28.8-4.11,4.15-4.87.92-.16-.71,2.36-2.52,3.05-2.97,6.55-4.33,16.59-4.11,19.25,4.47.16.52.65,2.31.65,2.7v24.58ZM197.56,172.7c-5.82.12-21.38,1.17-17.71,10.62,2.74,7.04,14.44,2.99,17.71-1.86v-8.75Z"/>
      <path class="cls-2" d="M151.72,189c-3.5.61-2.49-2.82-3-5.04-1.85,1.35-3.46,3.04-5.55,4.05-5.27,2.56-13.9,2.33-15.76-4.34-2.86-10.25,9.9-12.54,17.23-13.13.82-.07,3.7.3,3.92-.4.45-7.54-1.09-13.87-10.1-12.73-1.33.17-2.86.83-4.03,1.49-.94.52-3.53,2.83-4.18,2.77-.59-.05-1.45-1.18-1.3-1.76.14-.54,2.33-2.23,2.91-2.62,6.19-4.2,16.18-4.22,19.08,3.83.17.47.77,2.49.77,2.82v25.06ZM148.6,172.7c-4.46.05-16.77.9-18.13,6.23-1.06,4.19,1.46,7.82,5.77,8.16,4.9.38,9.11-2.24,12.36-5.63v-8.75Z"/>
    </g>
  </g>
</svg>
