<?xml version="1.0" encoding="UTF-8"?>
<svg xmlns="http://www.w3.org/2000/svg" xmlns:xlink="http://www.w3.org/1999/xlink" width="16px" height="16px" viewBox="0 0 16 16" version="1.1">
<g id="surface1">
<path style=" stroke:none;fill-rule:nonzero;fill:rgb(6.666667%,52.156866%,99.607843%);fill-opacity:1;" d="M 3.621094 1.328125 C 5.390625 2.835938 7.300781 5.890625 8 7.53125 C 8.699219 5.890625 10.609375 2.835938 12.378906 1.328125 C 13.660156 0.242188 15.734375 -0.597656 15.734375 2.078125 C 15.734375 2.613281 15.460938 6.570312 15.304688 7.210938 C 14.75 9.445312 12.738281 10.015625 10.949219 9.671875 C 14.078125 10.273438 14.875 12.269531 13.15625 14.265625 C 9.890625 18.058594 8.464844 13.3125 8.097656 12.097656 C 8.03125 11.875 8 11.773438 8 11.859375 C 8 11.773438 7.96875 11.875 7.902344 12.097656 C 7.535156 13.3125 6.109375 18.058594 2.84375 14.265625 C 1.125 12.269531 1.921875 10.273438 5.050781 9.671875 C 3.261719 10.015625 1.25 9.445312 0.695312 7.210938 C 0.539062 6.570312 0.265625 2.613281 0.265625 2.078125 C 0.265625 -0.597656 2.339844 0.242188 3.617188 1.328125 Z M 3.621094 1.328125 "/>
</g>
</svg>
