<svg id="ecosounds-logo" data-name="Layer 2" xmlns="http://www.w3.org/2000/svg" viewBox="0 0 129.34 74.42">
  <defs>
    <style>
      #ecosounds-logo .cls-1 {
        fill: var(--ecosounds-logo-bird-color, #231f20);
      }

      #ecosounds-logo .cls-2 {
        fill: var(--ecosounds-logo-wave-color, #666);
      }

      #ecosounds-logo .cls-3 {
        fill: #00467f;
      }
    </style>
  </defs>
  <g id="Home_Page" data-name="Home Page">
    <g>
      <g>
        <g>
          <path class="cls-2" d="M26.08,28.86h0c1.04,0,1.89.85,1.89,1.89v3.16c0,1.04-.85,1.89-1.89,1.89h0c-1.04,0-1.89-.85-1.89-1.89v-3.16c0-1.04.85-1.89,1.89-1.89Z"/>
          <path class="cls-2" d="M32.12,26.99h0c1.04,0,1.89.85,1.89,1.89v6.9c0,1.04-.85,1.89-1.89,1.89h0c-1.04,0-1.89-.85-1.89-1.89v-6.9c0-1.04.85-1.89,1.89-1.89Z"/>
          <path class="cls-2" d="M38.17,18.57h0c1.04,0,1.89.85,1.89,1.89v23.74c0,1.04-.85,1.89-1.89,1.89h0c-1.04,0-1.89-.85-1.89-1.89v-23.74c0-1.04.85-1.89,1.89-1.89Z"/>
          <rect class="cls-2" x="42.32" y="14.2" width="3.78" height="36.26" rx="1.89" ry="1.89"/>
          <rect class="cls-2" x="48.37" y="24.57" width="3.78" height="15.53" rx="1.89" ry="1.89"/>
          <path class="cls-2" d="M56.3,27.27h0c1.04,0,1.89.85,1.89,1.89v6.33c0,1.04-.85,1.89-1.89,1.89h0c-1.04,0-1.89-.85-1.89-1.89v-6.33c0-1.04.85-1.89,1.89-1.89Z"/>
          <path class="cls-2" d="M62.34,29.48h0c1.04,0,1.89.85,1.89,1.89v1.92c0,1.04-.85,1.89-1.89,1.89h0c-1.04,0-1.89-.85-1.89-1.89v-1.92c0-1.04.85-1.89,1.89-1.89Z"/>
          <rect class="cls-2" x="66.5" y="26.33" width="3.78" height="11.99" rx="1.89" ry="1.89"/>
          <path class="cls-2" d="M74.43,20.96h0c1.04,0,1.89.85,1.89,1.89v18.96c0,1.04-.85,1.89-1.89,1.89h0c-1.04,0-1.89-.85-1.89-1.89v-18.96c0-1.04.85-1.89,1.89-1.89Z"/>
          <path class="cls-2" d="M80.47,13.7h0c1.04,0,1.89.85,1.89,1.89v33.49c0,1.04-.85,1.89-1.89,1.89h0c-1.04,0-1.89-.85-1.89-1.89V15.59c0-1.04.85-1.89,1.89-1.89Z"/>
          <path class="cls-2" d="M86.52,9.86h0c1.04,0,1.89.85,1.89,1.89v41.14c0,1.04-.85,1.89-1.89,1.89h0c-1.04,0-1.89-.85-1.89-1.89V11.76c0-1.04.85-1.89,1.89-1.89Z"/>
          <path class="cls-2" d="M92.56,18.3h0c1.04,0,1.89.85,1.89,1.89v24.29c0,1.04-.85,1.89-1.89,1.89h0c-1.04,0-1.89-.85-1.89-1.89v-24.29c0-1.04.85-1.89,1.89-1.89Z"/>
          <path class="cls-2" d="M98.6,23.04h0c1.04,0,1.89.85,1.89,1.89v14.8c0,1.04-.85,1.89-1.89,1.89h0c-1.04,0-1.89-.85-1.89-1.89v-14.8c0-1.04.85-1.89,1.89-1.89Z"/>
          <path class="cls-2" d="M104.65,27.94h0c1.04,0,1.89.85,1.89,1.89v5.01c0,1.04-.85,1.89-1.89,1.89h0c-1.04,0-1.89-.85-1.89-1.89v-5.01c0-1.04.85-1.89,1.89-1.89Z"/>
          <path class="cls-2" d="M110.69,25.01h0c1.04,0,1.89.85,1.89,1.89v10.86c0,1.04-.85,1.89-1.89,1.89h0c-1.04,0-1.89-.85-1.89-1.89v-10.86c0-1.04.85-1.89,1.89-1.89Z"/>
          <path class="cls-2" d="M20.07,21.54h0c1.04,0,1.89.85,1.89,1.89v17.79c0,1.04-.85,1.89-1.89,1.89h0c-1.04,0-1.89-.85-1.89-1.89v-17.79c0-1.04.85-1.89,1.89-1.89Z"/>
          <path class="cls-2" d="M7.97,25.71h0c1.04,0,1.89.85,1.89,1.89v9.46c0,1.04-.85,1.89-1.89,1.89h0c-1.04,0-1.89-.85-1.89-1.89v-9.46c0-1.04.85-1.89,1.89-1.89Z"/>
          <path class="cls-2" d="M14.01,15.38h0c1.04,0,1.89.85,1.89,1.89v30.12c0,1.04-.85,1.89-1.89,1.89h0c-1.04,0-1.89-.85-1.89-1.89v-30.12c0-1.04.85-1.89,1.89-1.89Z"/>
          <path class="cls-2" d="M1.95,29.48h0c1.04,0,1.89.85,1.89,1.89v1.92c0,1.04-.85,1.89-1.89,1.89h0c-1.04,0-1.89-.85-1.89-1.89v-1.92c0-1.04.85-1.89,1.89-1.89Z"/>
          <path class="cls-2" d="M116.73,29.19h0c1.04,0,1.89.85,1.89,1.89v2.5c0,1.04-.85,1.89-1.89,1.89h0c-1.04,0-1.89-.85-1.89-1.89v-2.5c0-1.04.85-1.89,1.89-1.89Z"/>
        </g>
        <path class="cls-1" d="M82.17,1.17c-3.14-1.17-7.45-1.84-10.1-.15-2.43,1.55-3.35,4.25-3.69,5.86-1.79-.81-5.04-1.87-7.97-.59-2.57,1.09-4.24,3.65-5,7.67l-.17,1.03.49-.88c1.72-2.96,3.35-4.94,5.51-5.89,3.22-1.4,7.36,1.14,7.41,1.17l1.51.96.09-1.78s.26-4.04,2.96-5.77c1.87-1.19,4.36-1.55,8.89-1.29l1.25.13-1.19-.47Z"/>
      </g>
      <path class="cls-3" d="M1.25,74.42c-.31,0-.62-.11-.86-.34-.5-.47-.52-1.27-.05-1.77l24.83-26.24c.45-.47,1.19-.52,1.69-.11l17.33,14.01,17.34-14.62c.46-.39,1.13-.39,1.59-.01l23.3,18.91,17.33-17.27c.42-.42,1.07-.48,1.56-.16l5.22,3.39,16.69-15.86c.5-.47,1.29-.46,1.77.04.48.5.46,1.29-.04,1.77l-17.4,16.54c-.42.4-1.06.46-1.54.14l-5.2-3.38-17.41,17.35c-.45.45-1.17.49-1.67.08l-23.37-18.96-17.34,14.62c-.46.39-1.13.39-1.59.02l-17.23-13.93L2.16,74.03c-.25.26-.58.39-.91.39Z"/>
    </g>
  </g>
</svg>
