<?xml version="1.0" encoding="utf-8"?>
<!-- Generator: Adobe Illustrator 27.8.0, SVG Export Plug-In . SVG Version: 6.00 Build 0)  -->
<svg version="1.1" id="Layer_1" xmlns="http://www.w3.org/2000/svg" xmlns:xlink="http://www.w3.org/1999/xlink" x="0px" y="0px"
	 viewBox="0 0 336.6 250.9" style="display:block;height:100%;width:100%;enable-background:new 0 0 336.6 250.9;" xml:space="preserve">
<style type="text/css">
	.st0{fill:var(--logo-transparent,#094268);stroke:#FFFFFF;stroke-width:0.99;stroke-linejoin:round;stroke-miterlimit:10;}
	.st1{fill:var(--logo-transparent,#FAA61A);stroke:#FFFFFF;stroke-width:0.99;stroke-linejoin:round;stroke-miterlimit:10;}
	.st2{fill:var(--logo-invert-color,#FFFFFF);stroke:#FFFFFF;stroke-width:0.99;stroke-linejoin:round;stroke-miterlimit:10;}
	.st3{fill:var(--logo-invert-color,#FAA61A);stroke:#FFFFFF;stroke-width:0.99;stroke-linejoin:round;stroke-miterlimit:10;}
	.cls-1{fill:var(--logo-invert-color,#000000);}
</style>
<g>
	<g>
		<g>
			<path class="cls-1" d="M58.4,143.1l-23.8-36.3v36.3h-7.8V91.5h7.2l23.8,36.2V91.5h7.8v51.6H58.4z"/>
			<path class="cls-1" d="M94.3,143.5c-5.4,0-10-2-13.6-5.5c-5.1-5.1-5-10.8-5-20.7c0-9.9-0.1-15.7,5-20.7C84.3,93,88.9,91,94.3,91
				c9.5,0,16.6,5.6,18.4,15.9h-8c-1.2-5.2-4.7-8.8-10.4-8.8c-3,0-5.8,1.2-7.6,3.1c-2.5,2.8-3.1,5.7-3.1,16.1
				c0,10.4,0.6,13.3,3.1,16.1c1.8,2,4.6,3.1,7.6,3.1c5.7,0,9.3-3.6,10.5-8.8h7.9C111,137.9,103.7,143.5,94.3,143.5z"/>
			<path class="cls-1" d="M150.2,143.1l-10.9-21.7h-9.8v21.7h-7.8V91.5h20c9.8,0,16,6.3,16,15.1c0,7.4-4.5,12.1-10.3,13.7l11.9,22.8H150.2z
				 M141.1,98.5h-11.6v16.2h11.6c5.2,0,8.8-3,8.8-8C149.9,101.5,146.3,98.5,141.1,98.5z"/>
			<path class="cls-1" d="M167.7,143.1V91.5h7.8v51.6H167.7z"/>
			<path class="cls-1" d="M201.3,143.5c-7.8,0-13.3-1.8-18.3-6.8l5.2-5.1c3.8,3.8,7.9,4.9,13.2,4.9c6.7,0,10.7-2.9,10.7-7.9c0-2.2-0.7-4.1-2-5.4
				c-1.3-1.2-2.6-1.7-5.7-2.2l-6.1-0.9c-4.2-0.6-7.5-2-9.8-4.1c-2.5-2.4-3.8-5.7-3.8-9.9c0-9,6.5-15.1,17.2-15.1
				c6.8,0,11.6,1.7,16,5.9l-5,4.9c-3.2-3-6.9-4-11.2-4c-6.1,0-9.4,3.5-9.4,8c0,1.9,0.6,3.6,2,4.8c1.3,1.2,3.4,2,5.8,2.4l5.9,0.9
				c4.8,0.7,7.5,1.9,9.6,3.8c2.8,2.5,4.2,6.2,4.2,10.6C219.8,137.9,212.1,143.5,201.3,143.5z"/>
		</g>
		<g>
			<path class="cls-1" d="M37.5,170.2l-9.1-13.7v13.7h-1.8v-17.1h1.7l9.1,13.7v-13.7h1.8v17.1H37.5z"/>
			<path class="cls-1" d="M50.6,170.2v-1.1c-1,1-1.8,1.3-3.4,1.3c-1.6,0-2.6-0.3-3.3-1.1c-0.6-0.6-0.9-1.5-0.9-2.4c0-2.1,1.4-3.4,4.1-3.4h3.6v-1.1
				c0-1.7-0.9-2.6-3-2.6c-1.5,0-2.3,0.4-3,1.3l-1.2-1.1c1.1-1.4,2.3-1.8,4.2-1.8c3.2,0,4.7,1.4,4.7,3.9v8H50.6z M50.6,164.8h-3.3
				c-1.8,0-2.6,0.7-2.6,2.1c0,1.4,0.8,2,2.7,2c1,0,1.9-0.1,2.6-0.8c0.4-0.4,0.6-1.1,0.6-2V164.8z"/>
			<path class="cls-1" d="M59.8,170.2c-2,0-3-1.4-3-3.2v-7.2h-1.5v-1.3h1.5v-3.7h1.7v3.7h2.5v1.3h-2.5v7.2c0,1.1,0.5,1.7,1.6,1.7h0.9v1.5H59.8z"/>
			<path class="cls-1" d="M65.4,155.1c-0.6,0-1.2-0.5-1.2-1.2c0-0.6,0.5-1.2,1.2-1.2c0.6,0,1.2,0.5,1.2,1.2C66.6,154.6,66,155.1,65.4,155.1z
				 M64.5,170.2v-11.8h1.7v11.8H64.5z"/>
			<path class="cls-1" d="M78.2,169c-0.8,0.8-1.9,1.3-3.4,1.3c-1.4,0-2.6-0.5-3.4-1.3c-1.2-1.2-1.4-2.9-1.4-4.7c0-1.8,0.2-3.5,1.4-4.7
				c0.8-0.8,1.9-1.3,3.4-1.3c1.4,0,2.6,0.5,3.4,1.3c1.2,1.2,1.4,2.9,1.4,4.7C79.6,166.1,79.4,167.8,78.2,169z M76.9,160.7
				c-0.6-0.6-1.3-0.9-2.2-0.9c-0.8,0-1.6,0.3-2.1,0.9c-0.9,0.9-1,2.3-1,3.6c0,1.3,0.1,2.8,1,3.6c0.6,0.6,1.3,0.9,2.1,0.9
				c0.8,0,1.6-0.3,2.2-0.9c0.9-0.9,0.9-2.3,0.9-3.6C77.9,163,77.8,161.5,76.9,160.7z"/>
			<path class="cls-1" d="M90.9,170.2v-7.3c0-2.1-1.1-3.1-2.9-3.1c-1.8,0-2.9,1.1-2.9,3.1v7.3h-1.7v-11.8H85v1.3c0.8-1,2-1.4,3.3-1.4
				c1.3,0,2.3,0.4,3,1.1c0.8,0.8,1.2,1.9,1.2,3.3v7.6H90.9z"/>
			<path class="cls-1" d="M103.5,170.2v-1.1c-1,1-1.8,1.3-3.4,1.3c-1.6,0-2.6-0.3-3.3-1.1c-0.6-0.6-0.9-1.5-0.9-2.4c0-2.1,1.4-3.4,4.1-3.4h3.6
				v-1.1c0-1.7-0.9-2.6-3-2.6c-1.5,0-2.3,0.4-3,1.3l-1.2-1.1c1.1-1.4,2.3-1.8,4.2-1.8c3.2,0,4.7,1.4,4.7,3.9v8H103.5z M103.5,164.8
				h-3.3c-1.8,0-2.6,0.7-2.6,2.1c0,1.4,0.8,2,2.7,2c1,0,1.9-0.1,2.6-0.8c0.4-0.4,0.6-1.1,0.6-2V164.8z"/>
			<path class="cls-1" d="M112.4,170.2c-2.1,0-3-1.3-3-3.1v-13.9h1.7V167c0,1.2,0.4,1.7,1.6,1.7h0.9v1.5H112.4z"/>
			<path class="cls-1" d="M132.6,170.2l-3.9-7.6h-4.1v7.6h-1.8v-17.1h6.6c3,0,5.1,1.8,5.1,4.8c0,2.5-1.5,4.1-3.7,4.6l4.1,7.8H132.6z M129.2,154.7
				h-4.6v6.3h4.6c2,0,3.4-1,3.4-3.1C132.6,155.8,131.2,154.7,129.2,154.7z"/>
			<path class="cls-1" d="M139.3,164.8c0,2.6,1.2,4.1,3.5,4.1c1.4,0,2.2-0.4,3.1-1.3l1.2,1c-1.2,1.2-2.3,1.8-4.3,1.8c-3.1,0-5.2-1.9-5.2-6
				c0-3.8,1.8-6,4.8-6c3,0,4.8,2.2,4.8,5.7v0.8H139.3z M145.2,161.5c-0.5-1.1-1.5-1.8-2.8-1.8c-1.2,0-2.3,0.7-2.8,1.8
				c-0.3,0.6-0.3,1-0.4,2h6.2C145.5,162.5,145.5,162.1,145.2,161.5z"/>
			<path class="cls-1" d="M154.7,170.4c-2,0-3.6-0.5-4.8-1.7l1.2-1.2c0.9,1,2.2,1.4,3.7,1.4c1.9,0,3.1-0.7,3.1-2.1c0-1-0.6-1.6-2-1.7l-1.9-0.2
				c-2.3-0.2-3.5-1.2-3.5-3.2c0-2.2,1.8-3.5,4.3-3.5c1.7,0,3.2,0.4,4.2,1.3l-1.1,1.1c-0.8-0.6-1.9-0.9-3.1-0.9
				c-1.7,0-2.6,0.7-2.6,1.9c0,1,0.6,1.6,2.1,1.7l1.9,0.2c2.1,0.2,3.5,1,3.5,3.2C159.5,169,157.5,170.4,154.7,170.4z"/>
			<path class="cls-1" d="M164,164.8c0,2.6,1.2,4.1,3.5,4.1c1.4,0,2.2-0.4,3.1-1.3l1.2,1c-1.2,1.2-2.3,1.8-4.3,1.8c-3.1,0-5.2-1.9-5.2-6
				c0-3.8,1.8-6,4.8-6c3,0,4.8,2.2,4.8,5.7v0.8H164z M169.8,161.5c-0.5-1.1-1.5-1.8-2.8-1.8c-1.2,0-2.3,0.7-2.8,1.8
				c-0.3,0.6-0.3,1-0.4,2h6.2C170.1,162.5,170.1,162.1,169.8,161.5z"/>
			<path class="cls-1" d="M182.3,170.2v-1.1c-1,1-1.8,1.3-3.4,1.3c-1.6,0-2.6-0.3-3.3-1.1c-0.6-0.6-0.9-1.5-0.9-2.4c0-2.1,1.4-3.4,4.1-3.4h3.6
				v-1.1c0-1.7-0.9-2.6-3-2.6c-1.5,0-2.3,0.4-3,1.3l-1.2-1.1c1.1-1.4,2.3-1.8,4.2-1.8c3.2,0,4.7,1.4,4.7,3.9v8H182.3z M182.3,164.8
				H179c-1.8,0-2.6,0.7-2.6,2.1c0,1.4,0.8,2,2.7,2c1,0,1.9-0.1,2.6-0.8c0.4-0.4,0.6-1.1,0.6-2V164.8z"/>
			<path class="cls-1" d="M194.8,160.7c-0.6-0.6-1.1-0.9-2-0.9c-1.7,0-2.8,1.4-2.8,3.2v7.2h-1.7v-11.8h1.7v1.4c0.6-1,1.9-1.6,3.3-1.6
				c1.1,0,2,0.3,2.8,1.1L194.8,160.7z"/>
			<path class="cls-1" d="M202.2,170.4c-3,0-5.2-2-5.2-6c0-4,2.3-6,5.2-6c1.6,0,2.7,0.4,3.9,1.8l-1.2,1.1c-0.9-1-1.6-1.3-2.7-1.3
				c-1.2,0-2.1,0.5-2.7,1.3c-0.6,0.8-0.8,1.7-0.8,3.2c0,1.5,0.2,2.4,0.8,3.2c0.6,0.9,1.6,1.3,2.7,1.3c1.1,0,1.8-0.4,2.7-1.3l1.2,1.1
				C204.8,169.9,203.8,170.4,202.2,170.4z"/>
			<path class="cls-1" d="M216.9,170.2v-7.3c0-2.1-1.1-3.1-2.9-3.1c-1.8,0-3,1.1-3,3.1v7.3h-1.7v-17.1h1.7v6.6c0.9-1,2-1.4,3.3-1.4
				c2.7,0,4.2,1.7,4.2,4.4v7.6H216.9z"/>
			<path class="cls-1" d="M26.7,194.2v-17.1h1.8v17.1H26.7z"/>
			<path class="cls-1" d="M40.7,194.2v-7.3c0-2.1-1.1-3.1-2.9-3.1c-1.8,0-2.9,1.1-2.9,3.1v7.3h-1.7v-11.8h1.7v1.3c0.8-1,2-1.4,3.3-1.4
				c1.3,0,2.3,0.4,3,1.1c0.8,0.8,1.2,1.9,1.2,3.3v7.6H40.7z"/>
			<path class="cls-1" d="M48.7,183.8v10.4H47v-10.4h-1.5v-1.3H47v-2.2c0-1.8,1-3.2,3-3.2h1.2v1.5h-0.9c-1.1,0-1.6,0.6-1.6,1.7v2.2h2.5v1.3H48.7z"
				/>
			<path class="cls-1" d="M60.7,184.7c-0.6-0.6-1.1-0.9-2-0.9c-1.7,0-2.8,1.4-2.8,3.2v7.2h-1.7v-11.8h1.7v1.4c0.6-1,1.9-1.6,3.3-1.6
				c1.1,0,2,0.3,2.8,1.1L60.7,184.7z"/>
			<path class="cls-1" d="M70.7,194.2v-1.1c-1,1-1.8,1.3-3.4,1.3c-1.6,0-2.6-0.3-3.3-1.1c-0.6-0.6-0.9-1.5-0.9-2.4c0-2.1,1.4-3.4,4.1-3.4h3.6v-1.1
				c0-1.7-0.9-2.6-3-2.6c-1.5,0-2.3,0.4-3,1.3l-1.2-1.1c1.1-1.4,2.3-1.8,4.2-1.8c3.2,0,4.7,1.4,4.7,3.9v8H70.7z M70.7,188.8h-3.3
				c-1.8,0-2.6,0.7-2.6,2.1c0,1.4,0.8,2,2.7,2c1,0,1.9-0.1,2.6-0.8c0.4-0.4,0.6-1.1,0.6-2V188.8z"/>
			<path class="cls-1" d="M80.3,194.4c-2,0-3.6-0.5-4.8-1.7l1.2-1.2c0.9,1,2.2,1.4,3.7,1.4c1.9,0,3.1-0.7,3.1-2.1c0-1-0.6-1.6-2-1.7l-1.9-0.2
				c-2.3-0.2-3.5-1.2-3.5-3.2c0-2.2,1.8-3.5,4.3-3.5c1.7,0,3.2,0.4,4.2,1.3l-1.1,1.1c-0.8-0.6-1.9-0.9-3.1-0.9
				c-1.7,0-2.6,0.7-2.6,1.9c0,1,0.6,1.6,2.1,1.7l1.9,0.2c2.1,0.2,3.5,1,3.5,3.2C85.1,193,83.2,194.4,80.3,194.4z"/>
			<path class="cls-1" d="M91.6,194.2c-2,0-3-1.4-3-3.2v-7.2h-1.5v-1.3h1.5v-3.7h1.7v3.7h2.5v1.3h-2.5v7.2c0,1.1,0.5,1.7,1.6,1.7h0.9v1.5H91.6z"/>
			<path class="cls-1" d="M102.9,184.7c-0.6-0.6-1.1-0.9-2-0.9c-1.7,0-2.8,1.4-2.8,3.2v7.2h-1.7v-11.8H98v1.4c0.6-1,1.9-1.6,3.3-1.6
				c1.1,0,2,0.3,2.8,1.1L102.9,184.7z"/>
			<path class="cls-1" d="M113.8,194.2v-1.3c-0.8,1-2,1.5-3.3,1.5c-1.3,0-2.3-0.4-3-1.1c-0.8-0.8-1.2-1.9-1.2-3.3v-7.5h1.7v7.3
				c0,2.1,1.1,3.1,2.9,3.1c1.8,0,3-1.1,3-3.1v-7.3h1.7v11.8H113.8z"/>
			<path class="cls-1" d="M124.4,194.4c-3,0-5.2-2-5.2-6c0-4,2.3-6,5.2-6c1.6,0,2.7,0.4,3.9,1.8l-1.2,1.1c-0.9-1-1.6-1.3-2.7-1.3
				c-1.2,0-2.1,0.5-2.7,1.3c-0.6,0.8-0.8,1.7-0.8,3.2c0,1.5,0.2,2.4,0.8,3.2c0.6,0.9,1.6,1.3,2.7,1.3c1.1,0,1.8-0.4,2.7-1.3l1.2,1.1
				C127.1,193.9,126.1,194.4,124.4,194.4z"/>
			<path class="cls-1" d="M134.9,194.2c-2,0-3-1.4-3-3.2v-7.2h-1.5v-1.3h1.5v-3.7h1.7v3.7h2.5v1.3h-2.5v7.2c0,1.1,0.5,1.7,1.6,1.7h0.9v1.5H134.9z"
				/>
			<path class="cls-1" d="M147,194.2v-1.3c-0.8,1-2,1.5-3.3,1.5c-1.3,0-2.3-0.4-3-1.1c-0.8-0.8-1.2-1.9-1.2-3.3v-7.5h1.7v7.3
				c0,2.1,1.1,3.1,2.9,3.1c1.8,0,3-1.1,3-3.1v-7.3h1.7v11.8H147z"/>
			<path class="cls-1" d="M159.7,184.7c-0.6-0.6-1.1-0.9-2-0.9c-1.7,0-2.8,1.4-2.8,3.2v7.2h-1.7v-11.8h1.7v1.4c0.6-1,1.9-1.6,3.3-1.6
				c1.1,0,2,0.3,2.8,1.1L159.7,184.7z"/>
			<path class="cls-1" d="M163.5,188.8c0,2.6,1.2,4.1,3.5,4.1c1.4,0,2.2-0.4,3.1-1.3l1.2,1c-1.2,1.2-2.3,1.8-4.3,1.8c-3.1,0-5.2-1.9-5.2-6
				c0-3.8,1.8-6,4.8-6c3,0,4.8,2.2,4.8,5.7v0.8H163.5z M169.4,185.5c-0.5-1.1-1.5-1.8-2.8-1.8c-1.2,0-2.3,0.7-2.8,1.8
				c-0.3,0.6-0.3,1-0.4,2h6.2C169.7,186.5,169.6,186.1,169.4,185.5z"/>
			<path class="cls-1" d="M183.2,183.8v10.4h-1.7v-10.4H180v-1.3h1.5v-2.2c0-1.8,1-3.2,3-3.2h1.2v1.5h-0.9c-1.1,0-1.6,0.6-1.6,1.7v2.2h2.5v1.3
				H183.2z"/>
			<path class="cls-1" d="M195.8,193c-0.8,0.8-1.9,1.3-3.4,1.3c-1.4,0-2.6-0.5-3.4-1.3c-1.2-1.2-1.4-2.9-1.4-4.7c0-1.8,0.2-3.5,1.4-4.7
				c0.8-0.8,1.9-1.3,3.4-1.3c1.4,0,2.6,0.5,3.4,1.3c1.2,1.2,1.4,2.9,1.4,4.7C197.3,190.1,197,191.8,195.8,193z M194.6,184.7
				c-0.6-0.6-1.3-0.9-2.2-0.9c-0.8,0-1.6,0.3-2.1,0.9c-0.9,0.9-1,2.3-1,3.6c0,1.3,0.1,2.8,1,3.6c0.6,0.6,1.3,0.9,2.1,0.9
				c0.8,0,1.6-0.3,2.2-0.9c0.9-0.9,0.9-2.3,0.9-3.6C195.6,187,195.5,185.5,194.6,184.7z"/>
			<path class="cls-1" d="M207.6,184.7c-0.6-0.6-1.1-0.9-2-0.9c-1.7,0-2.8,1.4-2.8,3.2v7.2H201v-11.8h1.7v1.4c0.6-1,1.9-1.6,3.3-1.6
				c1.1,0,2,0.3,2.8,1.1L207.6,184.7z"/>
			<path class="cls-1" d="M227.3,194.2l-1.4-3.9h-7.5l-1.4,3.9h-1.9l6.3-17.1h1.5l6.3,17.1H227.3z M222.3,179.7l-3.2,9h6.4L222.3,179.7z"/>
			<path class="cls-1" d="M239.2,194.2v-1.3c-0.8,1-2,1.5-3.3,1.5c-1.3,0-2.3-0.4-3-1.1c-0.8-0.8-1.2-1.9-1.2-3.3v-7.5h1.7v7.3
				c0,2.1,1.1,3.1,2.9,3.1c1.8,0,3-1.1,3-3.1v-7.3h1.7v11.8H239.2z"/>
			<path class="cls-1" d="M248.9,194.4c-2,0-3.6-0.5-4.8-1.7l1.2-1.2c0.9,1,2.2,1.4,3.7,1.4c1.9,0,3.1-0.7,3.1-2.1c0-1-0.6-1.6-2-1.7l-1.9-0.2
				c-2.3-0.2-3.5-1.2-3.5-3.2c0-2.2,1.8-3.5,4.3-3.5c1.7,0,3.2,0.4,4.2,1.3l-1.1,1.1c-0.8-0.6-1.9-0.9-3.1-0.9
				c-1.7,0-2.6,0.7-2.6,1.9c0,1,0.6,1.6,2.1,1.7l1.9,0.2c2.1,0.2,3.5,1,3.5,3.2C253.7,193,251.8,194.4,248.9,194.4z"/>
			<path class="cls-1" d="M260.2,194.2c-2,0-3-1.4-3-3.2v-7.2h-1.5v-1.3h1.5v-3.7h1.7v3.7h2.5v1.3h-2.5v7.2c0,1.1,0.5,1.7,1.6,1.7h0.9v1.5H260.2z"
				/>
			<path class="cls-1" d="M271.4,184.7c-0.6-0.6-1.1-0.9-2-0.9c-1.7,0-2.8,1.4-2.8,3.2v7.2h-1.7v-11.8h1.7v1.4c0.6-1,1.9-1.6,3.3-1.6
				c1.1,0,2,0.3,2.8,1.1L271.4,184.7z"/>
			<path class="cls-1" d="M281.4,194.2v-1.1c-1,1-1.8,1.3-3.4,1.3c-1.6,0-2.6-0.3-3.3-1.1c-0.6-0.6-0.9-1.5-0.9-2.4c0-2.1,1.4-3.4,4.1-3.4h3.6
				v-1.1c0-1.7-0.9-2.6-3-2.6c-1.5,0-2.3,0.4-3,1.3l-1.2-1.1c1.1-1.4,2.3-1.8,4.2-1.8c3.2,0,4.7,1.4,4.7,3.9v8H281.4z M281.4,188.8
				h-3.3c-1.8,0-2.6,0.7-2.6,2.1c0,1.4,0.8,2,2.7,2c1,0,1.9-0.1,2.6-0.8c0.4-0.4,0.6-1.1,0.6-2V188.8z"/>
			<path class="cls-1" d="M290.3,194.2c-2.1,0-3-1.3-3-3.1v-13.9h1.7V191c0,1.2,0.4,1.7,1.6,1.7h0.9v1.5H290.3z"/>
			<path class="cls-1" d="M295.3,179.1c-0.6,0-1.2-0.5-1.2-1.2c0-0.6,0.5-1.2,1.2-1.2c0.6,0,1.2,0.5,1.2,1.2C296.5,178.6,296,179.1,295.3,179.1z
				 M294.5,194.2v-11.8h1.7v11.8H294.5z"/>
			<path class="cls-1" d="M307.2,194.2v-1.1c-1,1-1.8,1.3-3.4,1.3c-1.6,0-2.6-0.3-3.3-1.1c-0.6-0.6-0.9-1.5-0.9-2.4c0-2.1,1.4-3.4,4.1-3.4h3.6
				v-1.1c0-1.7-0.9-2.6-3-2.6c-1.5,0-2.3,0.4-3,1.3l-1.2-1.1c1.1-1.4,2.3-1.8,4.2-1.8c3.2,0,4.7,1.4,4.7,3.9v8H307.2z M307.2,188.8
				h-3.3c-1.8,0-2.6,0.7-2.6,2.1c0,1.4,0.8,2,2.7,2c1,0,1.9-0.1,2.6-0.8c0.4-0.4,0.6-1.1,0.6-2V188.8z"/>
		</g>
		<g>
			<path class="cls-1" d="M34,223.7l-1-2.7h-5.3l-1,2.7h-1.4l4.5-12.1h1.1l4.4,12.1H34z M30.4,213.4l-2.3,6.4h4.5L30.4,213.4z"/>
			<path class="cls-1" d="M43,223.7v-5.2c0-1.5-0.8-2.2-2.1-2.2c-1.3,0-2.1,0.8-2.1,2.2v5.2h-1.2v-8.4h1.2v0.9c0.6-0.7,1.4-1,2.3-1
				c0.9,0,1.6,0.3,2.1,0.8c0.6,0.6,0.9,1.4,0.9,2.3v5.4H43z"/>
			<path class="cls-1" d="M59.9,223.7l-1-2.7h-5.3l-1,2.7h-1.4l4.5-12.1h1.1l4.4,12.1H59.9z M56.3,213.4l-2.3,6.4h4.5L56.3,213.4z"/>
			<path class="cls-1" d="M68.9,223.7v-0.9c-0.6,0.7-1.4,1-2.4,1c-0.9,0-1.6-0.3-2.2-0.8c-0.6-0.6-0.9-1.4-0.9-2.3v-5.3h1.2v5.2
				c0,1.5,0.8,2.2,2,2.2c1.3,0,2.1-0.8,2.1-2.2v-5.2h1.2v8.4H68.9z"/>
			<path class="cls-1" d="M76.3,223.8c-1.4,0-2.5-0.3-3.4-1.2l0.8-0.8c0.7,0.7,1.6,1,2.6,1c1.4,0,2.2-0.5,2.2-1.5c0-0.7-0.4-1.1-1.4-1.2l-1.4-0.1
				c-1.6-0.1-2.5-0.9-2.5-2.2c0-1.5,1.3-2.4,3.1-2.4c1.2,0,2.3,0.3,3,0.9l-0.8,0.8c-0.6-0.5-1.4-0.7-2.2-0.7c-1.2,0-1.9,0.5-1.9,1.4
				c0,0.7,0.4,1.1,1.5,1.2l1.3,0.1c1.5,0.1,2.5,0.7,2.5,2.3C79.7,222.8,78.4,223.8,76.3,223.8z"/>
			<path class="cls-1" d="M84.9,223.7c-1.4,0-2.1-1-2.1-2.2v-5.1h-1.1v-0.9h1.1v-2.6H84v2.6h1.8v0.9H84v5.1c0,0.8,0.4,1.2,1.1,1.2h0.6v1.1H84.9z"
				/>
			<path class="cls-1" d="M93.4,216.9c-0.5-0.5-0.8-0.6-1.4-0.6c-1.2,0-2,1-2,2.2v5.1h-1.2v-8.4H90v1c0.5-0.7,1.4-1.1,2.3-1.1c0.8,0,1.4,0.2,2,0.8
				L93.4,216.9z"/>
			<path class="cls-1" d="M101.1,223.7v-0.8c-0.7,0.7-1.3,0.9-2.4,0.9c-1.2,0-1.8-0.2-2.4-0.8c-0.4-0.4-0.6-1-0.6-1.7c0-1.5,1-2.4,2.9-2.4h2.5
				v-0.8c0-1.2-0.6-1.8-2.1-1.8c-1.1,0-1.6,0.3-2.1,1l-0.8-0.8c0.7-1,1.6-1.2,3-1.2c2.2,0,3.3,1,3.3,2.8v5.7H101.1z M101.1,219.8
				h-2.3c-1.3,0-1.9,0.5-1.9,1.5c0,1,0.6,1.4,1.9,1.4c0.7,0,1.3-0.1,1.9-0.6c0.3-0.3,0.4-0.7,0.4-1.4V219.8z"/>
			<path class="cls-1" d="M108,223.7c-1.5,0-2.1-1-2.1-2.2v-9.9h1.2v9.8c0,0.8,0.3,1.2,1.1,1.2h0.7v1.1H108z"/>
			<path class="cls-1" d="M112.1,213c-0.5,0-0.8-0.4-0.8-0.8s0.4-0.8,0.8-0.8s0.9,0.4,0.9,0.8S112.6,213,112.1,213z M111.5,223.7v-8.4h1.2v8.4
				H111.5z"/>
			<path class="cls-1" d="M121.1,223.7v-0.8c-0.7,0.7-1.3,0.9-2.4,0.9c-1.2,0-1.8-0.2-2.4-0.8c-0.4-0.4-0.6-1-0.6-1.7c0-1.5,1-2.4,2.9-2.4h2.5
				v-0.8c0-1.2-0.6-1.8-2.1-1.8c-1.1,0-1.6,0.3-2.1,1l-0.8-0.8c0.7-1,1.6-1.2,3-1.2c2.2,0,3.3,1,3.3,2.8v5.7H121.1z M121.1,219.8
				h-2.3c-1.3,0-1.9,0.5-1.9,1.5c0,1,0.6,1.4,1.9,1.4c0.7,0,1.3-0.1,1.9-0.6c0.3-0.3,0.4-0.7,0.4-1.4V219.8z"/>
			<path class="cls-1" d="M131.2,223.7v-5.2c0-1.5-0.8-2.2-2.1-2.2c-1.3,0-2.1,0.8-2.1,2.2v5.2h-1.2v-8.4h1.2v0.9c0.6-0.7,1.4-1,2.3-1
				c0.9,0,1.6,0.3,2.1,0.8c0.6,0.6,0.9,1.4,0.9,2.3v5.4H131.2z"/>
			<path class="cls-1" d="M148,222.4c-0.8,0.9-1.9,1.4-3.2,1.4c-1.2,0-2.3-0.4-3.1-1.3c-1.1-1.1-1.1-2.3-1.1-4.9c0-2.6,0-3.8,1.1-4.9
				c0.8-0.8,1.9-1.3,3.1-1.3c1.6,0,2.5,0.6,3.6,1.6l-0.9,0.9c-0.9-0.9-1.5-1.4-2.8-1.4c-0.8,0-1.6,0.3-2.1,0.9
				c-0.8,0.8-0.9,1.6-0.9,4.1c0,2.5,0.1,3.4,0.9,4.1c0.5,0.5,1.3,0.9,2.1,0.9c0.9,0,1.7-0.4,2.3-1c0.5-0.6,0.7-1.3,0.7-2.2v-0.9
				h-2.9v-1.1h4.2v1.9C149.1,220.7,148.8,221.6,148,222.4z"/>
			<path class="cls-1" d="M157.7,222.8c-0.6,0.6-1.4,1-2.4,1c-1,0-1.8-0.4-2.4-1c-0.8-0.9-1-2-1-3.3c0-1.3,0.2-2.5,1-3.3c0.6-0.6,1.4-1,2.4-1
				c1,0,1.8,0.4,2.4,1c0.9,0.9,1,2,1,3.3C158.8,220.8,158.6,222,157.7,222.8z M156.9,216.9c-0.4-0.4-0.9-0.6-1.5-0.6
				c-0.6,0-1.1,0.2-1.5,0.6c-0.6,0.6-0.7,1.6-0.7,2.6c0,0.9,0.1,2,0.7,2.6c0.4,0.4,0.9,0.6,1.5,0.6c0.6,0,1.1-0.2,1.5-0.6
				c0.6-0.6,0.7-1.6,0.7-2.6C157.5,218.6,157.5,217.5,156.9,216.9z"/>
			<path class="cls-1" d="M164.6,223.7h-1.1l-3.1-8.4h1.3l2.3,6.7l2.3-6.7h1.3L164.6,223.7z"/>
			<path class="cls-1" d="M170.6,219.8c0,1.8,0.9,2.9,2.5,2.9c1,0,1.5-0.3,2.2-1l0.8,0.7c-0.8,0.9-1.6,1.3-3.1,1.3c-2.2,0-3.7-1.3-3.7-4.3
				c0-2.7,1.3-4.3,3.4-4.3c2.2,0,3.4,1.6,3.4,4v0.6H170.6z M174.7,217.5c-0.3-0.8-1.1-1.3-2-1.3c-0.9,0-1.6,0.5-2,1.3
				c-0.2,0.5-0.2,0.7-0.3,1.4h4.4C174.9,218.2,174.9,218,174.7,217.5z"/>
			<path class="cls-1" d="M184.1,216.9c-0.5-0.5-0.8-0.6-1.4-0.6c-1.2,0-2,1-2,2.2v5.1h-1.2v-8.4h1.2v1c0.5-0.7,1.4-1.1,2.3-1.1
				c0.8,0,1.4,0.2,2,0.8L184.1,216.9z"/>
			<path class="cls-1" d="M192.5,223.7v-5.2c0-1.5-0.8-2.2-2.1-2.2c-1.3,0-2.1,0.8-2.1,2.2v5.2h-1.2v-8.4h1.2v0.9c0.6-0.7,1.4-1,2.3-1
				c0.9,0,1.6,0.3,2.1,0.8c0.6,0.6,0.9,1.4,0.9,2.3v5.4H192.5z"/>
			<path class="cls-1" d="M208,223.7v-5.2c0-1.5-0.8-2.2-2.1-2.2c-1.2,0-2.1,0.8-2.1,2.1v5.3h-1.2v-5.2c0-1.5-0.8-2.2-2.1-2.2
				c-1.3,0-2.1,0.8-2.1,2.2v5.2h-1.2v-8.4h1.2v0.9c0.6-0.7,1.4-1,2.4-1c1.2,0,2.1,0.5,2.6,1.4c0.6-0.9,1.6-1.4,2.8-1.4
				c0.9,0,1.6,0.3,2.2,0.8c0.6,0.6,0.9,1.4,0.9,2.3v5.4H208z"/>
			<path class="cls-1" d="M213.5,219.8c0,1.8,0.9,2.9,2.5,2.9c1,0,1.5-0.3,2.2-1l0.8,0.7c-0.9,0.9-1.6,1.3-3.1,1.3c-2.2,0-3.7-1.3-3.7-4.3
				c0-2.7,1.3-4.3,3.4-4.3c2.2,0,3.4,1.6,3.4,4v0.6H213.5z M217.7,217.5c-0.3-0.8-1.1-1.3-2-1.3c-0.9,0-1.6,0.5-2,1.3
				c-0.2,0.5-0.2,0.7-0.3,1.4h4.4C217.9,218.2,217.9,218,217.7,217.5z"/>
			<path class="cls-1" d="M227.7,223.7v-5.2c0-1.5-0.8-2.2-2.1-2.2c-1.3,0-2.1,0.8-2.1,2.2v5.2h-1.2v-8.4h1.2v0.9c0.6-0.7,1.4-1,2.3-1
				c0.9,0,1.6,0.3,2.1,0.8c0.6,0.6,0.9,1.4,0.9,2.3v5.4H227.7z"/>
			<path class="cls-1" d="M234.8,223.7c-1.4,0-2.1-1-2.1-2.2v-5.1h-1.1v-0.9h1.1v-2.6h1.2v2.6h1.8v0.9h-1.8v5.1c0,0.8,0.4,1.2,1.1,1.2h0.6v1.1
				H234.8z"/>
			<path class="cls-1" d="M243.7,223.7v-12.1h1.3v12.1H243.7z"/>
			<path class="cls-1" d="M254.2,223.7v-5.2c0-1.5-0.8-2.2-2.1-2.2s-2.1,0.8-2.1,2.2v5.2h-1.2v-8.4h1.2v0.9c0.6-0.7,1.4-1,2.3-1
				c0.9,0,1.6,0.3,2.1,0.8c0.6,0.6,0.9,1.4,0.9,2.3v5.4H254.2z"/>
			<path class="cls-1" d="M259.6,213c-0.5,0-0.8-0.4-0.8-0.8s0.4-0.8,0.8-0.8c0.5,0,0.8,0.4,0.8,0.8S260.1,213,259.6,213z M259,223.7v-8.4h1.2v8.4
				H259z"/>
			<path class="cls-1" d="M266.2,223.7c-1.4,0-2.1-1-2.1-2.2v-5.1h-1.1v-0.9h1.1v-2.6h1.2v2.6h1.8v0.9h-1.8v5.1c0,0.8,0.4,1.2,1.1,1.2h0.6v1.1
				H266.2z"/>
			<path class="cls-1" d="M270.7,213c-0.5,0-0.8-0.4-0.8-0.8s0.4-0.8,0.8-0.8c0.5,0,0.9,0.4,0.9,0.8S271.2,213,270.7,213z M270.1,223.7v-8.4h1.2
				v8.4H270.1z"/>
			<path class="cls-1" d="M279.7,223.7v-0.8c-0.7,0.7-1.3,0.9-2.4,0.9c-1.2,0-1.8-0.2-2.4-0.8c-0.4-0.4-0.6-1-0.6-1.7c0-1.5,1-2.4,2.9-2.4h2.5
				v-0.8c0-1.2-0.6-1.8-2.1-1.8c-1.1,0-1.6,0.3-2.1,1l-0.8-0.8c0.7-1,1.6-1.2,3-1.2c2.2,0,3.3,1,3.3,2.8v5.7H279.7z M279.7,219.8
				h-2.3c-1.3,0-1.9,0.5-1.9,1.5c0,1,0.6,1.4,1.9,1.4c0.7,0,1.3-0.1,1.9-0.6c0.3-0.3,0.4-0.7,0.4-1.4V219.8z"/>
			<path class="cls-1" d="M286.9,223.7c-1.4,0-2.1-1-2.1-2.2v-5.1h-1.1v-0.9h1.1v-2.6h1.2v2.6h1.8v0.9H286v5.1c0,0.8,0.4,1.2,1.1,1.2h0.6v1.1
				H286.9z"/>
			<path class="cls-1" d="M291.4,213c-0.5,0-0.8-0.4-0.8-0.8s0.4-0.8,0.8-0.8c0.5,0,0.8,0.4,0.8,0.8S291.8,213,291.4,213z M290.7,223.7v-8.4h1.2
				v8.4H290.7z"/>
			<path class="cls-1" d="M298.4,223.7h-1.1l-3.1-8.4h1.3l2.3,6.7l2.3-6.7h1.3L298.4,223.7z"/>
			<path class="cls-1" d="M304.4,219.8c0,1.8,0.9,2.9,2.5,2.9c1,0,1.5-0.3,2.2-1l0.8,0.7c-0.8,0.9-1.6,1.3-3.1,1.3c-2.2,0-3.7-1.3-3.7-4.3
				c0-2.7,1.3-4.3,3.4-4.3c2.2,0,3.4,1.6,3.4,4v0.6H304.4z M308.6,217.5c-0.3-0.8-1.1-1.3-2-1.3c-0.9,0-1.6,0.5-2,1.3
				c-0.2,0.5-0.2,0.7-0.3,1.4h4.4C308.8,218.2,308.7,218,308.6,217.5z"/>
		</g>
		<rect x="23.2" y="205.1" width="290.2" height="0.5"/>
		<rect x="23.2" y="229.8" width="290.2" height="0.5"/>
	</g>
	<g>
		<polygon class="st0" points="309.5,130.3 276.7,144.6 276.7,104.4 309.5,90.1 		"/>
		<polygon class="st1" points="243.9,130.3 276.7,144.6 276.7,104.4 243.9,90.1 		"/>
		<polygon class="st2" points="309.5,90 276.7,104.4 243.9,90.1 276.7,75.7 		"/>
		<polygon class="st0" points="276.7,75.7 243.9,90.1 243.9,49.8 276.7,35.5 		"/>
		<polygon class="st3" points="211.1,75.7 243.9,90.1 243.9,49.8 211.1,35.5 		"/>
		<polygon class="st1" points="276.7,35.5 243.9,49.8 211.1,35.5 243.9,21.1 		"/>
	</g>
</g>
</svg>
