<?xml version="1.0" encoding="UTF-8" standalone="no"?>
<svg
    xmlns:dc="http://purl.org/dc/elements/1.1/"
    xmlns:cc="http://creativecommons.org/ns#"
    xmlns:rdf="http://www.w3.org/1999/02/22-rdf-syntax-ns#"
    xmlns:svg="http://www.w3.org/2000/svg"
    xmlns="http://www.w3.org/2000/svg"
    viewBox="0 0 733.25336 769.96002"
    height="100%"
    width="100%"
    preserveAspectRatio="xMidYMid meet"
    xml:space="preserve"
    id="svg2"
    version="1.1">
    <metadata
        id="metadata8">
        <rdf:RDF>
            <cc:Work
                rdf:about="">
                <dc:format>image/svg+xml</dc:format>
                <dc:type
                    rdf:resource="http://purl.org/dc/dcmitype/StillImage" />
            </cc:Work>
        </rdf:RDF>
    </metadata>
    <defs
        id="defs6">
        <style>
            .shield {
                fill: var(--jcu-logo-shield-color, #176fc1);
            }

            .sun {
                fill: var(--jcu-logo-sun-color, #e7b20f);
            }

            .text {
                fill: var(--jcu-logo-text-color, #231f20);
            }
        </style>
    </defs>
    <g
        transform="matrix(1.3333333,0,0,-1.3333333,0,769.96)"
        id="g10">
        <g
            transform="scale(0.1)"
            id="g12">
            <path
                id="path14"
                class="shield"
                d="m 5066.27,2510.3 c -97.13,-56.06 -235.9,-91.05 -390.03,-91.05 -154.4,0 -293.04,34.99 -390.2,90.95 -97.08,55.97 -235.99,90.91 -390.01,90.91 -154.14,0 -293.27,-34.94 -390.14,-90.91 -97.24,-55.96 -236.01,-90.95 -390.27,-90.95 -154.14,0 -292.91,34.99 -389.92,90.95 -97.23,55.97 -235.91,90.91 -390.27,90.91 -14.41,0 -28.7,-0.52 -43.09,-1.14 v -361.02 c 0,-54.68 2,-107.24 5.1,-159.04 12.62,0.45 25.27,1.11 37.99,1.11 154.36,0 293.04,-35.05 390.27,-91.16 97.01,-55.9 235.78,-90.83 389.92,-90.83 154.26,0 293.03,34.93 390.27,90.83 96.87,56.11 236,91.16 390.14,91.16 154.02,0 292.93,-35.05 390.01,-91.16 97.16,-55.9 235.8,-90.83 390.2,-90.83 154.13,0 292.9,34.93 390.03,90.94 97.12,56 235.9,91.05 389.91,91.05 13.09,0 25.6,-0.66 38.2,-1.11 3.11,51.8 5,104.36 5,159.04 v 361.02 c -14.17,0.62 -28.34,1.14 -43.2,1.14 -154.01,0 -292.79,-34.94 -389.91,-90.81" />
            <path
                id="path16"
                class="shield"
                d="m 4676.24,1378.78 c -154.27,0 -293.14,34.93 -390.2,90.83 -97.08,56 -235.99,91.16 -390.01,91.16 -154.14,0 -293.15,-35.16 -390.14,-91.16 -97.24,-55.9 -236.01,-90.83 -390.27,-90.83 -154.14,-0.12 -292.91,34.93 -389.92,90.83 -86.41,49.9 -205.67,82.95 -339.2,89.5 68.31,-228.69 169.47,-421 288.85,-584.809 17.75,-7.871 34.63,-15.86 50.35,-24.949 97.01,-55.903 235.78,-91.051 389.92,-90.954 154.26,0 293.03,35.051 390.27,90.954 96.99,56.008 236,91.268 390.14,91.268 154.02,0 292.93,-35.05 390.01,-91.268 97.06,-55.903 235.93,-90.954 390.2,-90.954 154.13,0 292.9,35.051 390.03,90.954 15.69,9.199 32.74,17.187 50.35,25.058 119.47,163.7 220.31,356.01 288.74,584.7 -133.67,-6.55 -252.92,-39.6 -339.09,-89.5 -97.13,-55.9 -235.9,-90.83 -390.03,-90.83" />
            <path
                id="path18"
                class="shield"
                d="m 4286.04,429.211 c -97.08,55.789 -235.99,90.93 -390.01,90.93 -154.14,0 -293.15,-35.141 -390.14,-90.93 C 3459.09,402.152 3402.7,380.41 3339.62,364.66 3563.25,215.16 3770.01,105.25 3896.03,0 c 125.93,105.25 332.68,215.16 556.32,364.66 -63.07,15.75 -119.5,37.492 -166.31,64.551" />
            <path
                id="path20"
                class="shield"
                d="m 5066.27,3550.84 c -97.13,-56 -235.9,-91.21 -390.03,-91.21 -154.4,0 -293.04,35.21 -390.2,91.21 -97.08,55.79 -235.99,90.86 -390.01,90.86 -154.14,0 -293.27,-35.07 -390.14,-90.86 -97.24,-56 -236.01,-91.21 -390.27,-91.21 -154.14,0 -292.91,35.21 -389.92,91.21 -97.23,55.79 -235.91,90.86 -390.27,90.86 -14.41,0 -28.7,-0.49 -43.09,-1.11 v -520.25 c 14.39,0.5 28.68,1 43.09,1 154.36,0 293.04,-34.91 390.27,-90.83 97.01,-56.15 235.78,-91.08 389.92,-91.08 154.26,0 293.03,34.93 390.27,91.08 96.87,55.92 236,90.83 390.14,90.83 154.02,0 292.93,-34.91 390.01,-90.83 97.16,-56.15 235.8,-91.08 390.2,-91.08 154.13,0 292.9,34.93 390.03,91.08 97.12,55.92 235.9,90.83 389.91,90.83 14.86,0 29.03,-0.5 43.2,-1.11 v 520.36 c -14.17,0.62 -28.34,1.11 -43.2,1.11 -154.01,0 -292.79,-35.07 -389.91,-90.86" />
            <path
                id="path22"
                class="sun"
                d="m 3896.03,4619.25 c -290.36,0 -525.72,-235.35 -525.72,-525.66 0,-26.18 2.64,-51.8 6.29,-76.91 48.24,14.55 91.92,32.93 129.29,54.47 96.87,55.77 236,90.86 390.14,90.86 154.02,0 292.93,-35.09 390.01,-90.86 37.42,-21.59 81.11,-39.92 129.41,-54.59 3.69,25.23 6.24,50.8 6.24,77.03 0,290.31 -235.34,525.66 -525.66,525.66 z m -716.45,-154.41 c -10.48,-1.55 -20.88,-4.44 -31.52,-6.41 -27.82,-4.71 -54.15,-5.38 -80.77,-4.38 -27.25,0.89 -59.39,7.44 -77.55,19.22 -4.63,-27.39 29.22,-63.49 57.93,-82.85 19.62,-13.44 40.33,-24.98 62.29,-32.24 8.62,-3.05 17.19,-4.53 25.75,-7.74 26.32,-9.17 52.13,-26.06 72.57,-44.16 26.58,-23.43 48.6,-53.22 68.96,-79.5 16.32,76.75 47.02,148.67 88.8,212.45 -27.73,9.89 -57.73,20.6 -90.47,25.61 -28.92,4.55 -63.22,5.1 -95.99,0 z m 1917.27,-371.37 -577.12,103.43 c 5.71,-33.61 9.4,-68.21 9.4,-103.37 0,-35.19 -3.69,-69.5 -9.4,-103.31 z m -1825.08,103.43 -576.79,-103.43 577.01,-103.25 c -5.26,33.81 -9.15,68.12 -9.15,103.31 0,35.16 3.89,69.76 8.93,103.37 z m 1393.39,140.7 c 6.42,8.79 11.5,18.19 17.98,26.76 15.95,23.15 34.19,42.12 53.43,60.23 20.05,18.51 47.5,36.9 68.91,41.41 -16.28,22.24 -65.86,24.29 -99.85,17.61 -23.32,-4.58 -45.47,-10.75 -66.79,-21.21 -8.32,-4.07 -15.44,-9.12 -23.79,-13.06 -25.06,-11.78 -55.09,-18.33 -82.71,-19.85 -35.02,-2.38 -71.77,3.27 -104.74,7.6 h -0.54 c 41.6,-64.13 71.95,-135.8 88.26,-213.06 26.75,12.62 55.04,26.32 81.77,45.7 23.73,17.27 48.43,41.15 68.07,67.87 z m -1129.27,276.1 -362.85,203.04 202.4,-363.02 c 43.87,62.69 97.88,116.89 160.45,159.98 z m 880.51,-159.98 202.48,363.02 -362.75,-203.04 c 62.44,-43.09 116.71,-97.29 160.27,-159.98 z m -413.93,263.32 -106.44,1057.67 -106.56,-1057.67 c 34.8,5.66 70.04,9.5 106.56,9.5 36.18,0 71.53,-3.84 106.44,-9.5 z m -475.34,119.36 c 3.99,-7.99 9.1,-15.45 12.98,-23.68 11.83,-25.23 18.57,-55.23 20.04,-82.43 2.06,-35.46 -3.32,-72.2 -7.62,-104.91 v -0.73 c 63.8,41.62 135.83,72.15 212.94,88.36 -12.62,26.73 -26.12,55.38 -45.69,81.77 -17.28,23.79 -41.29,48.41 -67.75,67.68 -8.79,6.52 -18.07,11.81 -27,17.97 -23.1,16.33 -41.9,34.41 -60.22,53.65 -18.46,20.15 -36.79,47.58 -41.2,69.09 -22.43,-16.44 -24.21,-65.82 -17.61,-100 4.71,-23.57 10.85,-45.64 21.13,-66.77 z m 740.32,-122.6 c 4.38,29 4.93,63.46 0,96.31 -1.61,10.46 -4.88,20.8 -6.63,31.41 -4.69,27.85 -5.52,53.86 -4.69,80.58 1.25,27.2 7.36,59.75 19.58,77.97 -27.22,4.16 -63.42,-29.42 -82.88,-58.2 -13.55,-20.02 -24.84,-40.14 -32.26,-62.5 -3.03,-8.2 -4.75,-17.27 -7.57,-25.45 -9.46,-26.34 -26.29,-52.4 -44.26,-72.97 -23.62,-26.07 -53.2,-48.44 -79.88,-68.32 l -0.11,-0.22 c 77.11,-16.69 148.92,-47.14 212.94,-88.95 9.87,27.92 20.19,57.98 25.76,90.34" />
            <path
                id="path24"
                class="text"
                d="m 565.43,2766.13 v -38.92 C 272.344,2677.93 62.2422,2506.75 62.2422,2195.5 c 0,-474.63 389.0628,-741.78 835.1838,-741.78 510.954,0 866.294,391.63 866.294,767.73 0,339.76 -249,474.64 -529.12,591.35 l 15.56,36.34 c 158.22,-31.13 313.84,-80.41 464.28,-142.67 80.41,-166 111.54,-344.97 111.54,-529.12 0,-542.1 -311.26,-1024.5 -897.425,-1024.5 C 466.863,1152.85 0,1513.36 0,2198.09 c 0,197.13 38.8984,396.84 140.063,568.04 H 565.43" />
            <path
                id="path26"
                class="text"
                d="M 31.1289,5004.58 H 70.0234 C 95.9609,4768.55 241.215,4752.99 583.586,4742.6 l 568.014,-15.56 c 334.6,-7.77 674.38,-150.43 674.38,-726.25 0,-804.04 -580.99,-721.04 -788.49,-721.04 H 456.492 C 189.348,3271.98 111.523,3269.37 70.0234,2958.14 H 31.1289 v 894.84 H 70.0234 C 119.309,3513.19 171.176,3508 456.492,3508 h 531.711 c 49.287,0 718.457,-82.99 718.457,627.69 0,560.22 -534.3,505.76 -850.738,505.76 H 583.586 c -329.41,0 -479.848,-25.92 -513.5626,-389.05 H 31.1289 v 752.18" />
            <path
                id="path28"
                class="text"
                d="m 456.492,548.469 c -285.316,0 -337.183,-5.18 -386.4686,-344.949 H 31.1289 v 892.23 H 70.0234 C 111.523,784.488 189.348,776.73 456.492,776.73 h 928.558 c 426.54,2.192 600.26,-53.23 765.77,-402.019 29.21,-61.539 55.26,-109.641 85.98,-206.02 25.27,-79.3316 30.07,-152.2222 31,-161.60897 L 2229.07,3.25 c -0.19,2.78125 -3.08,32.8711 -14.85,78.7695 -5.61,21.8595 -20.29,58.0315 -25.81,69.7505 -18.74,39.82 -32.3,64.539 -53.48,97.011 -178.81,274 -448.24,299.688 -864.01,299.688 H 456.492" />
        </g>
    </g>
</svg>
