<svg id="Layer_1" data-name="Layer 1" xmlns="http://www.w3.org/2000/svg" viewBox="0 0 120 120"><defs><style>.cls-1{fill:none;}.cls-2{fill:#c97d2e;}.cls-3{fill:#231f20;}</style></defs><rect class="cls-1" width="120" height="120"/><circle class="cls-1" cx="60" cy="60" r="60"/><rect class="cls-2" x="10.33" y="50.23" width="7.33" height="19.63" rx="3.47"/><rect class="cls-2" x="22.06" y="54.51" width="7.33" height="11.06" rx="3.47"/><rect class="cls-2" x="33.79" y="48.4" width="7.33" height="23.28" rx="3.47"/><rect class="cls-2" x="45.52" y="37.98" width="7.33" height="44.13" rx="3.47"/><rect class="cls-2" x="57.25" y="23.88" width="7.33" height="72.34" rx="3.47"/><rect class="cls-2" x="68.98" y="16.45" width="7.33" height="87.2" rx="3.47"/><rect class="cls-2" x="80.71" y="32.81" width="7.33" height="54.48" rx="3.47"/><rect class="cls-2" x="92.44" y="42.02" width="7.33" height="36.05" rx="3.47"/><rect class="cls-2" x="104.17" y="51.51" width="7.33" height="17.07" rx="3.47"/><path class="cls-3" d="M60.79,10.54c-6.1-2.29-14.45-3.56-19.6-.28-4.71,3-6.5,8.25-7.18,11.37-3.48-1.58-9.78-3.62-15.47-1.15-5,2.17-8.23,7.09-9.71,14.89l-.33,2,1-1.71c3.33-5.75,6.49-9.58,10.7-11.42,6.24-2.72,14.29,2.22,14.37,2.27l2.95,1.83.17-3.46c0-.08.5-7.84,5.76-11.18,3.64-2.31,8.48-3,17.25-2.51l2.44.25Z"/></svg>