<svg xmlns="http://www.w3.org/2000/svg" viewBox="0 0 437.5 100.55"><defs><style>.cls-1{fill:#231f20;fill:var(--oe-color-logo);}.cls-2{fill:#c97d2e;}</style></defs><g id="Layer_2" data-name="Layer 2"><g id="Layer_1-2" data-name="Layer 1"><path class="cls-1" d="M260.82,52.88c-7.26,0-12-5.06-12-12.32,0-7.57,4.69-12.45,12-12.45s12,4.78,12,12.45C272.84,47.82,268.08,52.88,260.82,52.88Zm0-4c4.27,0,6.65-3.16,6.65-8.35s-2.34-8.48-6.69-8.48-6.65,3.19-6.65,8.48S256.58,48.91,260.86,48.91Z"/><path class="cls-1" d="M284.88,52.71a6.19,6.19,0,0,1-5-2.14l.07,7.19a.38.38,0,0,1-.37.38h-4.48a.37.37,0,0,1-.37-.38l.13-12.48-.13-10a.37.37,0,0,1,.37-.38h4.41a.34.34,0,0,1,.34.38l-.07,1.66A6.41,6.41,0,0,1,285,34.55c4.95,0,7.57,3.94,7.57,9S289.63,52.71,284.88,52.71Zm-1.43-3.43c2.58,0,3.91-1.87,3.91-5.43,0-3.87-1.33-5.84-3.8-5.84s-3.81,1.87-3.84,5.5S281,49.28,283.45,49.28Z"/><path class="cls-1" d="M311.14,46.46a.33.33,0,0,1,.34.38c-.47,3.19-3.53,6-8.38,6-5.84,0-9-3.83-9-9.13,0-5.56,3.32-9.23,8.89-9.23,5.73,0,8.89,3.77,9,9.84a.37.37,0,0,1-.37.38H299.23c.2,3.29,1.5,4.75,3.94,4.75a3.17,3.17,0,0,0,3.39-2.58.45.45,0,0,1,.44-.38ZM303,37.81c-2,0-3.26,1.22-3.66,3.63h7.16C306.32,39.58,305.27,37.81,303,37.81Z"/><path class="cls-1" d="M314.26,52.37a.38.38,0,0,1-.37-.37l.13-8L314,35.27a.38.38,0,0,1,.37-.38h4.17a.33.33,0,0,1,.34.38l-.07,1.83a7.07,7.07,0,0,1,5.64-2.61c3.7,0,6.07,2.51,6.07,6.78v3.67l.11,7.06a.38.38,0,0,1-.38.37H325.8a.38.38,0,0,1-.37-.37l.1-7.06v-3.6c0-1.9-1.16-3.12-2.68-3.12-1.83,0-3.8,1.69-3.8,5.43v1.29l.06,7.06a.38.38,0,0,1-.37.37Z"/><path class="cls-1" d="M249.83,89.09a.38.38,0,0,1-.38-.38l.21-11.5-.21-11.51a.38.38,0,0,1,.38-.37h15.88a.38.38,0,0,1,.37.37v3.09a.38.38,0,0,1-.37.38h-11l-.17,5.46h10.14a.38.38,0,0,1,.38.37v3.09a.37.37,0,0,1-.38.37H254.58l.17,6.79H266a.38.38,0,0,1,.37.38v3.08a.38.38,0,0,1-.37.38Z"/><path class="cls-1" d="M276.36,89.53c-5.6,0-8.92-3.57-8.92-9.13s3.32-9.23,9-9.23c4.48,0,7.37,2.51,7.81,6.28a.33.33,0,0,1-.34.37h-4a.44.44,0,0,1-.44-.37,3.14,3.14,0,0,0-3.06-2.85c-2.58,0-3.8,1.9-3.8,5.77s1.26,5.73,3.8,5.76c1.7,0,3-1.15,3.23-3.39a.43.43,0,0,1,.4-.37h4.08a.33.33,0,0,1,.34.37C284.1,86.68,280.91,89.53,276.36,89.53Z"/><path class="cls-1" d="M295.26,89.53c-5.7,0-9-3.57-9-9.13s3.29-9.23,9-9.23,8.93,3.56,8.93,9.13S301,89.53,295.26,89.53Zm0-3.4c2.51,0,3.7-1.73,3.7-5.73s-1.22-5.84-3.73-5.84-3.77,1.94-3.77,5.87S292.72,86.13,295.26,86.13Z"/><path class="cls-1" d="M319.73,89.09a.29.29,0,0,1-.27-.28l.06-3.29a6.14,6.14,0,0,1-5.87,3.87c-4.58,0-7-3.93-7-9s2.48-9.1,7-9.1A6.07,6.07,0,0,1,319.52,75l-.06-3.16a.29.29,0,0,1,.27-.27h1.15a.29.29,0,0,1,.27.27l-.1,8.15.1,8.78a.29.29,0,0,1-.27.28Zm-5.77-1c3.39,0,5.6-2.55,5.63-7.54s-2-7.94-5.56-7.94c-3.94,0-5.71,3.36-5.71,7.61S310.06,88.07,314,88.07Z"/><path class="cls-1" d="M331.57,89.46c-5,0-7.64-3.6-7.64-9.06s2.65-9.16,7.67-9.16c4.21,0,6.69,2.41,7.06,6a.24.24,0,0,1-.24.27h-1a.32.32,0,0,1-.3-.27,5.12,5.12,0,0,0-5.5-4.69c-4,0-5.94,3.06-5.94,7.81s1.87,7.7,5.94,7.74a5.3,5.3,0,0,0,5.67-5.23.35.35,0,0,1,.3-.27h1.06a.23.23,0,0,1,.23.27C338.56,86.71,336.05,89.46,331.57,89.46Z"/><path class="cls-1" d="M348.53,89.46c-5,0-7.8-3.63-7.8-9.09s2.78-9.13,7.8-9.13,7.81,3.66,7.81,9.13S353.59,89.46,348.53,89.46Zm0-1.32c4.08,0,6.08-3,6.08-7.77s-2-7.81-6.08-7.81-6.07,3-6.07,7.81S344.5,88.14,348.53,88.14Z"/><path class="cls-1" d="M364.72,89.49c-3.53,0-5.7-2.27-5.7-7V79.11l0-7.23a.3.3,0,0,1,.28-.27h1.18a.29.29,0,0,1,.27.27l-.06,7.23v3.16c0,4.2,1.76,5.8,4.41,5.8s4.37-2,5.53-5.16v-3.8l0-7.23a.29.29,0,0,1,.27-.27H372a.3.3,0,0,1,.27.27l-.07,7.4.07,9.53a.3.3,0,0,1-.27.28h-1.16a.3.3,0,0,1-.27-.28l.07-3.32A6.68,6.68,0,0,1,364.72,89.49Z"/><path class="cls-1" d="M382.29,89.43c-4.37,0-7.16-2-7.26-6.28a.29.29,0,0,1,.27-.27h1.09a.28.28,0,0,1,.27.27c.1,3.42,2.07,5,5.67,5,3,0,5.12-1.36,5.12-3.77,0-5.66-12-1.56-12-8.34,0-3.16,2.68-4.79,6.41-4.79s6.58,1.6,6.75,5.23a.29.29,0,0,1-.27.27h-1a.3.3,0,0,1-.27-.27c-.17-2.82-2.41-4-5.22-4S377,73.68,377,76c0,5.16,12.05,1.05,12.05,8.31C389.08,87.53,386.1,89.43,382.29,89.43Z"/><path class="cls-1" d="M398.75,88.75a.33.33,0,0,1-.27.34,8,8,0,0,1-1.83.27c-2.28,0-4-1.16-4-4.85l0-11.51h-2a.28.28,0,0,1-.27-.27v-.85a.29.29,0,0,1,.27-.27h2l-.07-4.11a.3.3,0,0,1,.27-.27h1.19a.29.29,0,0,1,.27.27l0,4.11h4.14a.29.29,0,0,1,.27.27v.85a.28.28,0,0,1-.27.27h-4.14V84.51c0,2.61.71,3.39,2.41,3.39a8.89,8.89,0,0,0,1.73-.17.21.21,0,0,1,.27.2Z"/><path class="cls-1" d="M401.94,69.34a.29.29,0,0,1-.27-.27V67.23a.29.29,0,0,1,.27-.27h1.19a.3.3,0,0,1,.27.27v1.84a.3.3,0,0,1-.27.27Zm0,19.75a.29.29,0,0,1-.27-.28l.07-9-.07-8a.29.29,0,0,1,.27-.27h1.19a.3.3,0,0,1,.27.27l0,7.94,0,9a.3.3,0,0,1-.27.28Z"/><path class="cls-1" d="M414,89.46c-5,0-7.63-3.6-7.63-9.06s2.64-9.16,7.67-9.16c4.2,0,6.68,2.41,7.05,6,0,.13-.1.27-.23.27h-1a.33.33,0,0,1-.31-.27,5.11,5.11,0,0,0-5.49-4.69c-4,0-5.94,3.06-5.94,7.81s1.86,7.7,5.94,7.74a5.29,5.29,0,0,0,5.66-5.23.36.36,0,0,1,.31-.27h1.05a.24.24,0,0,1,.24.27C421,86.71,418.5,89.46,414,89.46Z"/><path class="cls-1" d="M430.71,89.43c-4.37,0-7.16-2-7.26-6.28a.29.29,0,0,1,.27-.27h1.09a.28.28,0,0,1,.27.27c.1,3.42,2.07,5,5.67,5,3,0,5.12-1.36,5.12-3.77,0-5.66-12-1.56-12-8.34,0-3.16,2.68-4.79,6.41-4.79s6.58,1.6,6.75,5.23a.29.29,0,0,1-.27.27h-1a.3.3,0,0,1-.27-.27c-.17-2.82-2.41-4-5.22-4s-4.76,1.15-4.76,3.46c0,5.16,12.05,1.05,12.05,8.31C437.5,87.53,434.52,89.43,430.71,89.43Z"/><rect class="cls-2" x="44.27" y="52.96" width="6.93" height="12.74" rx="3.47"/><rect class="cls-2" x="55.36" y="49.53" width="6.93" height="19.6" rx="3.47"/><rect class="cls-2" x="66.45" y="34.08" width="6.93" height="50.51" rx="3.47"/><rect class="cls-2" x="77.54" y="26.06" width="6.93" height="66.54" rx="3.47"/><rect class="cls-2" x="88.63" y="45.09" width="6.93" height="28.49" rx="3.47"/><rect class="cls-2" x="99.72" y="50.05" width="6.93" height="18.56" rx="3.47"/><rect class="cls-2" x="110.81" y="54.1" width="6.93" height="10.46" rx="3.47"/><rect class="cls-2" x="121.9" y="48.33" width="6.93" height="22.01" rx="3.47"/><rect class="cls-2" x="132.99" y="38.47" width="6.93" height="41.73" rx="3.47"/><rect class="cls-2" x="144.08" y="25.14" width="6.93" height="68.39" rx="3.47"/><rect class="cls-2" x="155.17" y="18.11" width="6.93" height="82.44" rx="3.47"/><rect class="cls-2" x="166.26" y="33.58" width="6.93" height="51.51" rx="3.47"/><rect class="cls-2" x="177.35" y="42.29" width="6.93" height="34.09" rx="3.47"/><rect class="cls-2" x="188.44" y="51.27" width="6.93" height="16.13" rx="3.47"/><rect class="cls-2" x="199.53" y="45.9" width="6.93" height="26.87" rx="3.47"/><rect class="cls-2" x="33.24" y="39.54" width="6.93" height="39.58" rx="3.47"/><rect class="cls-2" x="11.03" y="47.18" width="6.93" height="24.3" rx="3.47"/><rect class="cls-2" x="22.12" y="28.23" width="6.93" height="62.21" rx="3.47"/><rect class="cls-2" y="54.1" width="6.93" height="10.47" rx="3.47"/><rect class="cls-2" x="210.62" y="53.57" width="6.93" height="11.53" rx="3.47"/><path class="cls-1" d="M150.67,2.15C144.9,0,137-1.22,132.14,1.88c-4.45,2.84-6.15,7.8-6.78,10.75-3.29-1.49-9.25-3.43-14.63-1.08-4.71,2-7.78,6.7-9.18,14.07l-.31,1.89.9-1.62c3.15-5.44,6.14-9.06,10.12-10.8,5.9-2.57,13.51,2.1,13.59,2.14L128.63,19l.17-3.27c0-.08.47-7.42,5.44-10.58,3.44-2.18,8-2.85,16.31-2.37l2.3.24Z"/></g></g></svg>
