<svg id="oe-logo" data-name="Layer 2" xmlns="http://www.w3.org/2000/svg" viewBox="0 0 217.55 100.54">
  <defs>
    <style>
      #oe-logo .cls-1 {
        fill: var(--oe-theme-color);
      }
      #oe-logo .cls-2 {
        fill: var(--logo-invert-color, #231f20);
      }
    </style>
  </defs>
  <g id="Layer_1-2" data-name="Layer 1">
    <g id="Layer_2-2" data-name="Layer 2">
      <g id="uuid-ad4cc03e-74c0-42e3-8c21-ef05850f4581" data-name="Layer 1-2">
        <path class="cls-1" d="M47.74,52.95h0c1.91,0,3.47,1.55,3.47,3.47v5.8c0,1.92-1.55,3.47-3.47,3.47h0c-1.91,0-3.47-1.55-3.47-3.47v-5.8c0-1.92,1.55-3.47,3.47-3.47Z"/>
        <path class="cls-1" d="M58.83,49.52h0c1.91,0,3.47,1.55,3.47,3.47v12.66c0,1.92-1.55,3.47-3.47,3.47h0c-1.91,0-3.47-1.55-3.47-3.47v-12.66c0-1.92,1.55-3.47,3.47-3.47Z"/>
        <rect class="cls-1" x="66.45" y="34.07" width="6.93" height="50.51" rx="3.46" ry="3.46"/>
        <path class="cls-1" d="M81.01,26.05h0c1.91,0,3.46,1.55,3.46,3.46v59.62c0,1.91-1.55,3.46-3.46,3.46h0c-1.91,0-3.46-1.55-3.46-3.46V29.52c0-1.92,1.55-3.47,3.47-3.47Z"/>
        <path class="cls-1" d="M92.1,45.08h0c1.91,0,3.46,1.55,3.46,3.46v21.57c0,1.91-1.55,3.46-3.46,3.46h0c-1.91,0-3.46-1.55-3.46-3.46v-21.56c0-1.92,1.55-3.47,3.47-3.47Z"/>
        <path class="cls-1" d="M103.19,50.04h0c1.91,0,3.46,1.55,3.46,3.46v11.64c0,1.91-1.55,3.46-3.46,3.46h0c-1.91,0-3.46-1.55-3.46-3.46v-11.63c0-1.92,1.55-3.47,3.47-3.47Z"/>
        <path class="cls-1" d="M114.28,54.09h0c1.91,0,3.46,1.55,3.46,3.46v3.54c0,1.91-1.55,3.46-3.46,3.46h0c-1.91,0-3.46-1.55-3.46-3.46v-3.53c0-1.92,1.55-3.47,3.47-3.47Z"/>
        <rect class="cls-1" x="121.9" y="48.32" width="6.93" height="22.01" rx="3.46" ry="3.46"/>
        <path class="cls-1" d="M136.46,38.46h0c1.91,0,3.46,1.55,3.46,3.47v34.79c0,1.92-1.55,3.47-3.46,3.47h0c-1.91,0-3.46-1.55-3.46-3.47v-34.79c0-1.92,1.55-3.47,3.46-3.47Z"/>
        <path class="cls-1" d="M147.54,25.13h0c1.91,0,3.46,1.55,3.46,3.47v61.45c0,1.92-1.55,3.47-3.46,3.47h0c-1.91,0-3.46-1.55-3.46-3.47V28.6c0-1.92,1.55-3.47,3.46-3.47Z"/>
        <path class="cls-1" d="M158.63,18.1h0c1.91,0,3.46,1.55,3.46,3.47v75.5c0,1.92-1.55,3.47-3.46,3.47h0c-1.91,0-3.46-1.55-3.46-3.47V21.57c0-1.92,1.55-3.47,3.46-3.47Z"/>
        <path class="cls-1" d="M169.72,33.57h0c1.91,0,3.46,1.55,3.46,3.47v44.57c0,1.92-1.55,3.47-3.46,3.47h0c-1.91,0-3.46-1.55-3.46-3.47v-44.57c0-1.92,1.55-3.47,3.46-3.47Z"/>
        <path class="cls-1" d="M180.82,42.28h0c1.91,0,3.46,1.55,3.46,3.47v27.15c0,1.92-1.55,3.47-3.46,3.47h0c-1.91,0-3.46-1.55-3.46-3.47v-27.15c0-1.92,1.55-3.47,3.46-3.47Z"/>
        <path class="cls-1" d="M191.9,51.26h0c1.91,0,3.46,1.55,3.46,3.47v9.19c0,1.92-1.55,3.47-3.46,3.47h0c-1.91,0-3.46-1.55-3.46-3.47v-9.19c0-1.92,1.55-3.47,3.46-3.47Z"/>
        <path class="cls-1" d="M202.99,45.89h0c1.91,0,3.46,1.55,3.46,3.47v19.93c0,1.92-1.55,3.47-3.46,3.47h0c-1.91,0-3.46-1.55-3.46-3.47v-19.93c0-1.92,1.55-3.47,3.46-3.47Z"/>
        <path class="cls-1" d="M36.71,39.53h0c1.91,0,3.47,1.55,3.47,3.47v32.64c0,1.92-1.55,3.47-3.47,3.47h0c-1.91,0-3.47-1.55-3.47-3.47v-32.64c0-1.92,1.55-3.47,3.47-3.47Z"/>
        <path class="cls-1" d="M14.49,47.17h0c1.91,0,3.47,1.55,3.47,3.47v17.36c0,1.92-1.55,3.47-3.47,3.47h0c-1.91,0-3.47-1.55-3.47-3.47v-17.36c0-1.92,1.55-3.47,3.47-3.47Z"/>
        <path class="cls-1" d="M25.59,28.22h0c1.91,0,3.47,1.55,3.47,3.47v55.27c0,1.92-1.55,3.47-3.47,3.47h0c-1.91,0-3.47-1.55-3.47-3.47V31.69c0-1.92,1.55-3.47,3.47-3.47Z"/>
        <path class="cls-1" d="M3.46,54.09h0c1.91,0,3.46,1.55,3.46,3.47v3.53c0,1.92-1.55,3.47-3.46,3.47h0c-1.91,0-3.46-1.55-3.46-3.47v-3.53c0-1.92,1.55-3.47,3.46-3.47Z"/>
        <path class="cls-1" d="M214.08,53.56h0c1.91,0,3.46,1.55,3.46,3.47v4.59c0,1.92-1.55,3.47-3.46,3.47h0c-1.91,0-3.46-1.55-3.46-3.47v-4.59c0-1.92,1.55-3.47,3.46-3.47Z"/>
        <path class="cls-2" d="M150.67,2.14c-5.77-2.15-13.67-3.37-18.53-.27-4.45,2.84-6.15,7.8-6.78,10.75-3.29-1.49-9.25-3.43-14.63-1.08-4.71,2-7.78,6.7-9.18,14.07l-.31,1.89.9-1.62c3.15-5.44,6.14-9.06,10.12-10.8,5.9-2.57,13.51,2.1,13.59,2.14l2.78,1.77.17-3.27c0-.08.47-7.42,5.44-10.58,3.44-2.18,8-2.85,16.31-2.37l2.3.24-2.18-.87Z"/>
      </g>
    </g>
  </g>
</svg>
