<?xml version="1.0" encoding="UTF-8" standalone="no"?>
<!-- Created with Inkscape (http://www.inkscape.org/) -->

<svg
   xmlns:dc="http://purl.org/dc/elements/1.1/"
   xmlns:cc="http://creativecommons.org/ns#"
   xmlns:rdf="http://www.w3.org/1999/02/22-rdf-syntax-ns#"
   xmlns:svg="http://www.w3.org/2000/svg"
   xmlns="http://www.w3.org/2000/svg"
   xmlns:sodipodi="http://sodipodi.sourceforge.net/DTD/sodipodi-0.dtd"
   xmlns:inkscape="http://www.inkscape.org/namespaces/inkscape"
   width="552.23059"
   height="607.30194"
   id="svg2"
   version="1.1"
   inkscape:version="0.48.3.1 r9886"
   sodipodi:docname="pipsie.svg">
  <defs
     id="defs4" />
  <sodipodi:namedview
     id="base"
     pagecolor="#ffffff"
     bordercolor="#666666"
     borderopacity="1.0"
     inkscape:pageopacity="0.0"
     inkscape:pageshadow="2"
     inkscape:zoom="0.89411866"
     inkscape:cx="276.11529"
     inkscape:cy="348.38776"
     inkscape:document-units="px"
     inkscape:current-layer="layer1"
     showgrid="false"
     inkscape:window-width="1366"
     inkscape:window-height="719"
     inkscape:window-x="0"
     inkscape:window-y="27"
     inkscape:window-maximized="1"
     fit-margin-top="0"
     fit-margin-left="0"
     fit-margin-right="0"
     fit-margin-bottom="0" />
  <metadata
     id="metadata7">
    <rdf:RDF>
      <cc:Work
         rdf:about="">
        <dc:format>image/svg+xml</dc:format>
        <dc:type
           rdf:resource="http://purl.org/dc/dcmitype/StillImage" />
        <dc:title></dc:title>
      </cc:Work>
    </rdf:RDF>
  </metadata>
  <g
     inkscape:label="Camada 1"
     inkscape:groupmode="layer"
     id="layer1"
     transform="translate(-104.54913,-279.53688)">
    <path
       style="fill:#ff7f2a;stroke:none"
       d="m 299.39383,429.27912 0,62.04667 39.24638,0 z"
       id="path3023"
       inkscape:connector-curvature="0" />
    <path
       inkscape:connector-curvature="0"
       id="path3025"
       d="m 360.41261,429.27912 0,62.04667 -39.24638,0 z"
       style="fill:#ff7f2a;stroke:none" />
    <path
       style="fill:#b588c1;fill-opacity:1;stroke:none"
       d="m 335.65959,477.24779 c -23.16573,-0.03 -58.53757,18.89157 -75.06088,72.9465 -12.3385,55.34536 -0.068,108.6152 58.23143,133.62566 34.92779,10.84527 72.46434,13.18791 120.72935,-19.4363 25.45999,-18.02995 46.23428,-47.18279 30.27578,-54.94494 -8.83333,-3.29397 -12.62594,7.09403 -18.31497,12.33458 1.81425,-7.22111 5.89067,-14.65767 -2.24265,-20.9314 -9.76134,-6.93241 -17.48063,5.96006 -17.56743,10.09192 -2.01601,14.54697 -6.66306,21.69866 -25.04293,23.92161 -23.3734,-0.30474 -40.18085,-9.92399 -42.19912,-40.52322 3.2177,-31.99462 23.01424,-47.37578 23.94247,-64.50958 1.26589,-23.36661 -20.48907,-51.18415 -52.75105,-52.57483 z"
       id="path2998"
       inkscape:connector-curvature="0"
       sodipodi:nodetypes="ccccccccccsc" />
    <path
       style="fill:#74439e;fill-opacity:1;stroke:none"
       d="m 318.83014,615.97978 c 8.78583,14.8961 20.71298,17.61953 33.45287,17.19365 10.69121,-0.1093 19.57819,1.54053 10.65259,20.55763 7.28287,-8.81051 14.99284,-15.62793 25.22982,-10.65259 10.94683,6.25391 5.85071,23.56657 -0.93444,29.34134 -14.54093,15.30349 -40.61612,12.76804 -54.38427,-0.37377 -13.4155,-15.31831 -15.97279,-34.7976 -14.01657,-56.06626 z"
       id="path3019"
       inkscape:connector-curvature="0"
       sodipodi:nodetypes="ccccccc" />
    <path
       style="fill:#74439e;fill-opacity:1;stroke:none"
       d="m 316.20928,506.23519 c 29.60678,1.4556 53.4246,4.27527 25.27976,19.33902 45.79364,-13.41467 6.23957,-21.68431 -25.27976,-19.33902 z"
       id="path3021"
       inkscape:connector-curvature="0"
       sodipodi:nodetypes="ccc" />
    <g
       id="g3848"
       transform="translate(104.11957,11.195653)">
      <path
         d="m 232.64368,356.40839 1.08163,0 0,-69.64953 -1.08163,0 0,69.64953 z"
         style="fill:#000000;fill-rule:nonzero;stroke:#000000;stroke-width:0;stroke-linecap:butt;stroke-linejoin:round;stroke-miterlimit:10"
         id="path62"
         inkscape:connector-curvature="0" />
      <path
         d="m 232.64368,384.38437 1.08163,0 0,-97.62551 -1.08163,0 0,97.62551 z"
         style="fill:#000000;stroke:#000000;stroke-width:2.04128528;stroke-linecap:butt;stroke-linejoin:round;stroke-miterlimit:10"
         id="path66"
         inkscape:connector-curvature="0" />
      <path
         d="m 223.43286,375.89219 c -3.53483,0.43697 -7.14756,1.89072 -10.25836,4.30929 -3.53483,2.58296 -5.94906,6.03126 -6.72787,9.56609 -0.16873,1.12924 -0.16873,3.1065 0.0865,3.9718 0.77446,3.0243 3.19303,4.91503 6.81006,5.6938 1.02973,0.16876 3.63434,0.16876 4.91933,0 3.27523,-0.61004 6.64133,-2.08107 9.56179,-4.22707 3.4483,-2.58299 5.86686,-6.03129 6.64563,-9.56612 0.16876,-1.12924 0.16876,-3.10646 -0.0865,-4.05399 -0.7788,-2.83827 -3.11083,-4.75061 -6.55913,-5.52507 -0.9432,-0.16873 -3.36177,-0.25527 -4.39149,-0.16873 z"
         style="fill:#000000;fill-rule:evenodd;stroke:#000000;stroke-width:0;stroke-linecap:butt;stroke-linejoin:round;stroke-miterlimit:10"
         id="path98"
         inkscape:connector-curvature="0" />
      <path
         id="path2242"
         style="fill:#000000;stroke:#000000;stroke-width:1.67260802;stroke-linecap:butt;stroke-linejoin:round;stroke-miterlimit:10"
         d="m 273.52311,345.75881 1.03296,0 0,-68.63356 -1.03296,0 0,68.63356 z"
         inkscape:connector-curvature="0" />
      <path
         id="path2244"
         style="fill:#000000;fill-rule:evenodd;stroke:#000000;stroke-width:0;stroke-linecap:butt;stroke-linejoin:round;stroke-miterlimit:10"
         d="m 264.31229,338.9262 c -3.53483,0.43697 -7.14756,1.89073 -10.25836,4.30929 -3.53483,2.58296 -5.94906,6.03126 -6.72786,9.56609 -0.16873,1.12924 -0.16873,3.1065 0.0865,3.9718 0.77447,3.0243 3.19303,4.91503 6.81006,5.6938 1.02973,0.16877 3.63434,0.16877 4.91934,0 3.27523,-0.61004 6.64132,-2.08107 9.56178,-4.22706 3.4483,-2.583 5.86687,-6.0313 6.64563,-9.56612 0.16877,-1.12924 0.16877,-3.10647 -0.0865,-4.054 -0.7788,-2.83826 -3.11083,-4.7506 -6.55913,-5.52507 -0.94319,-0.16873 -3.36176,-0.25526 -4.39149,-0.16873 z"
         inkscape:connector-curvature="0" />
      <path
         style="fill:#000000;fill-opacity:1;fill-rule:evenodd;stroke:none"
         d="m 274.96009,268.34123 -43.56957,15.42864 0.60619,9.68039 43.49379,-15.31263 -0.53041,-9.7964 z"
         id="path2254"
         sodipodi:nodetypes="ccccc"
         inkscape:connector-curvature="0" />
    </g>
    <path
       style="fill:#000000;stroke:#000000;stroke-width:1.00351202px;stroke-linecap:butt;stroke-linejoin:miter;stroke-opacity:1"
       d="m 330.69161,687.11715 -7.97691,57.35866 10.84579,0.84558 z"
       id="path3062"
       inkscape:connector-curvature="0" />
    <path
       style="fill:#000000;stroke:#000000;stroke-width:1.00470519px;stroke-linecap:butt;stroke-linejoin:miter;stroke-opacity:1"
       d="m 358.2609,690.99087 1.88927,55.79995 10.28601,-0.56506 z"
       id="path3064"
       inkscape:connector-curvature="0" />
    <path
       style="fill:#4b3c34;fill-opacity:1;stroke:#4b3c34;stroke-width:1px;stroke-linecap:butt;stroke-linejoin:miter;stroke-opacity:1"
       d="m 656.2797,701.66024 0,63.79672 c -63.43057,-40.10527 -118.84656,-40.5692 -174.8689,-16.22281 -30.34055,9.76936 -54.01145,18.71796 -103.5575,18.19866 -43.32564,-0.86142 -75.10479,-16.42995 -126.51089,-12.875 -37.76012,3.67229 -77.0236,7.12905 -96.0221,51.23518 0.20249,-10.39871 -0.63751,-28.57054 26.96126,-48.51675 10.49804,-7.68961 34.49632,-16.48988 90.0468,-19.19999 87.54032,-0.24102 84.12808,24.56722 197.91305,-15.83305 67.91402,-29.10421 131.79211,-42.99603 186.03828,-20.58296 z"
       id="path3834"
       inkscape:connector-curvature="0"
       sodipodi:nodetypes="cccccccccc" />
    <path
       style="fill:#3c7040;fill-opacity:1;stroke:#3c7040;stroke-width:1px;stroke-linecap:butt;stroke-linejoin:miter;stroke-opacity:1"
       d="m 598.12777,689.76296 c 14.49366,-13.2056 30.90315,-21.71746 38.34511,-52.19973 4.7554,-20.26461 -11.86223,-25.92682 -22.95109,-10.07609 -16.67261,29.00237 -13.32094,43.70169 -15.39402,62.27582 z"
       id="path3836"
       inkscape:connector-curvature="0"
       sodipodi:nodetypes="cccc" />
    <path
       sodipodi:nodetypes="cccc"
       inkscape:connector-curvature="0"
       id="path3838"
       d="m 475.20075,752.31555 c 14.49366,13.2056 30.90315,21.71746 38.34511,52.19973 4.7554,20.26461 -11.86223,25.92682 -22.95109,10.07609 -16.67261,-29.00237 -13.32094,-43.70169 -15.39402,-62.27582 z"
       style="fill:#3c7040;fill-opacity:1;stroke:#3c7040;stroke-width:1px;stroke-linecap:butt;stroke-linejoin:miter;stroke-opacity:1" />
    <path
       sodipodi:nodetypes="cccc"
       inkscape:connector-curvature="0"
       id="path3840"
       d="m 596.56649,689.52429 c -19.43489,-11.08875 -40.65909,-17.18602 -53.508,-46.64729 -8.30565,-19.61437 11.4585,-27.76152 27.02369,-13.51437 24.02899,26.60567 21.68421,41.8439 26.48431,60.16166 z"
       style="fill:#3c7040;fill-opacity:1;stroke:#3c7040;stroke-width:1.11893594px;stroke-linecap:butt;stroke-linejoin:miter;stroke-opacity:1" />
    <path
       style="fill:#3c7040;fill-opacity:1;stroke:#3c7040;stroke-width:1px;stroke-linecap:butt;stroke-linejoin:miter;stroke-opacity:1"
       d="m 157.3407,807.61367 c 19.58633,-0.9108 37.20839,-6.49527 64.02487,9.79669 17.69182,10.96667 9.94517,26.7209 -9.104,23.35375 -32.29709,-8.71846 -40.32109,-21.48244 -54.92087,-33.15044 z"
       id="path3842"
       inkscape:connector-curvature="0"
       sodipodi:nodetypes="cccc" />
    <path
       style="fill:#3c7040;fill-opacity:1;stroke:#3c7040;stroke-width:1px;stroke-linecap:butt;stroke-linejoin:miter;stroke-opacity:1"
       d="m 154.83461,808.32619 c 7.88713,17.95125 19.43011,32.39018 13.86088,63.26954 -3.87791,20.45068 -23.14467,18.88161 -26.84651,-0.10535 -5.0959,-31.86906 6.64525,-45.06009 12.98563,-63.16419 z"
       id="path3844"
       inkscape:connector-curvature="0"
       sodipodi:nodetypes="cccc" />
    <path
       sodipodi:nodetypes="cccc"
       inkscape:connector-curvature="0"
       id="path3846"
       d="m 153.00782,807.22535 c -9.27208,12.23123 -13.22059,24.25382 -28.20877,35.17118 -14.42301,7.80599 -25.536249,-1.52746 -16.78033,-11.8871 14.69173,-19.23283 29.0222,-22.01168 44.9891,-23.28408 z"
       style="fill:#3c7040;fill-opacity:1;stroke:#3c7040;stroke-width:0.73679388px;stroke-linecap:butt;stroke-linejoin:miter;stroke-opacity:1" />
  </g>
</svg>
